G04 ---------------------------- Layer name :TOP SILK LAYER*
G04 Sat, 24 Nov 2018 04:00:05 GMT*
G04 67e7144068ef4060983f5ba8a8309223*
G04 Gerber Generator version 0.2*
G04 Scale: 100 percent, Rotated: No, Reflected: No *
G04 Dimensions in inches *
G04 leading zeros omitted , absolute positions ,2 integer and 4 decimal *
%FSLAX24Y24*%
%MOIN*%
G90*
G70D02*

%ADD10C,0.010000*%
%ADD30C,0.009000*%
%ADD31C,0.008000*%
%ADD32C,0.007992*%
%ADD33C,0.007000*%

G04 ---------------------------- copperAreaA Start*

G04 ---------------------------- copperAreaA End*

G04 ---------------------------- planeZoneA Start*

G04 ---------------------------- planeZoneA End*

G04 ---------------------------- Positive polarity*

%LPD*%

G04 ---------------------------- track start*
G54D10*
G01X1200Y17600D02*
G01X1200Y15600D01*
G01X1200Y15600D02*
G01X5200Y15600D01*
G01X1200Y17600D02*
G01X5200Y17600D01*
G01X5200Y17600D02*
G01X5200Y17100D01*
G01X5200Y16100D02*
G01X5200Y15600D01*
G54D30*
G01X3550Y12800D02*
G01X3550Y10800D01*
G01X2650Y10800D01*
G01X2650Y12800D01*
G01X3550Y12800D01*
G01X3550Y11050D02*
G01X2650Y11050D01*
G01X1650Y12800D02*
G01X1650Y10800D01*
G01X750Y10800D01*
G01X750Y12800D01*
G01X1650Y12800D01*
G01X1650Y11050D02*
G01X750Y11050D01*
G54D10*
G01X21157Y13369D02*
G01X18064Y13369D01*
G01X17653Y13369D01*
G01X17653Y13369D02*
G01X17653Y15967D01*
G01X21157Y15967D02*
G01X17653Y15967D01*
G01X21157Y13365D02*
G01X21157Y14157D01*
G01X21157Y15173D02*
G01X21157Y15963D01*
G01X500Y3400D02*
G01X500Y7600D01*
G01X1700Y7600D01*
G01X1700Y3400D01*
G01X500Y3400D01*
G01X500Y4500D02*
G01X1700Y4500D01*
G01X8200Y2650D02*
G01X8200Y3150D01*
G01X15200Y3150D02*
G01X15450Y3400D01*
G01X15950Y3400D01*
G01X16200Y3150D01*
G01X16200Y2650D02*
G01X16200Y3150D01*
G01X8200Y2650D02*
G01X8450Y2400D01*
G01X8950Y2400D01*
G01X9200Y2650D01*
G01X8200Y3150D02*
G01X8450Y3400D01*
G01X8950Y3400D01*
G01X9200Y3150D01*
G01X9200Y2650D02*
G01X9450Y2400D01*
G01X9950Y2400D01*
G01X10200Y2650D01*
G01X9200Y3150D02*
G01X9450Y3400D01*
G01X9950Y3400D01*
G01X10200Y3150D01*
G01X10200Y2650D02*
G01X10450Y2400D01*
G01X10950Y2400D01*
G01X11200Y2650D01*
G01X10200Y3150D02*
G01X10450Y3400D01*
G01X10950Y3400D01*
G01X11200Y3150D01*
G01X11200Y2650D02*
G01X11450Y2400D01*
G01X11950Y2400D01*
G01X12200Y2650D01*
G01X11200Y3150D02*
G01X11450Y3400D01*
G01X11950Y3400D01*
G01X12200Y3150D01*
G01X12200Y2650D02*
G01X12450Y2400D01*
G01X12950Y2400D01*
G01X13200Y2650D01*
G01X12200Y3150D02*
G01X12450Y3400D01*
G01X12950Y3400D01*
G01X13200Y3150D01*
G01X13200Y2650D02*
G01X13450Y2400D01*
G01X13950Y2400D01*
G01X14200Y2650D01*
G01X13200Y3150D02*
G01X13450Y3400D01*
G01X13950Y3400D01*
G01X14200Y3150D01*
G01X14200Y2650D02*
G01X14450Y2400D01*
G01X14950Y2400D01*
G01X15200Y2650D01*
G01X14200Y3150D02*
G01X14450Y3400D01*
G01X14950Y3400D01*
G01X15200Y3150D01*
G01X15200Y2650D02*
G01X15450Y2400D01*
G01X15950Y2400D01*
G01X16200Y2650D01*
G01X10100Y18600D02*
G01X10100Y19300D01*
G01X9100Y19300D01*
G01X9100Y18600D01*
G01X9100Y18000D02*
G01X9100Y17300D01*
G01X10100Y17300D01*
G01X10100Y18000D01*
G01X14100Y18900D02*
G01X13400Y18900D01*
G01X13400Y17900D01*
G01X14100Y17900D01*
G01X14700Y17900D02*
G01X15400Y17900D01*
G01X15400Y18900D01*
G01X14700Y18900D01*
G01X18100Y18900D02*
G01X17400Y18900D01*
G01X17400Y17900D01*
G01X18100Y17900D01*
G01X18700Y17900D02*
G01X19400Y17900D01*
G01X19400Y18900D01*
G01X18700Y18900D01*
G01X8700Y10400D02*
G01X8700Y11100D01*
G01X7700Y11100D01*
G01X7700Y10400D01*
G01X7700Y9800D02*
G01X7700Y9100D01*
G01X8700Y9100D01*
G01X8700Y9800D01*
G01X9157Y13369D02*
G01X6064Y13369D01*
G01X5653Y13369D01*
G01X5653Y13369D02*
G01X5653Y15967D01*
G01X9157Y15967D02*
G01X5653Y15967D01*
G01X9157Y13365D02*
G01X9157Y14157D01*
G01X9157Y15173D02*
G01X9157Y15963D01*
G01X7100Y18800D02*
G01X6400Y18800D01*
G01X6400Y17800D01*
G01X7100Y17800D01*
G01X7700Y17800D02*
G01X8400Y17800D01*
G01X8400Y18800D01*
G01X7700Y18800D01*
G01X12600Y10400D02*
G01X12600Y11100D01*
G01X11600Y11100D01*
G01X11600Y10400D01*
G01X11600Y9800D02*
G01X11600Y9100D01*
G01X12600Y9100D01*
G01X12600Y9800D01*
G01X13257Y13369D02*
G01X10164Y13369D01*
G01X9753Y13369D01*
G01X9753Y13369D02*
G01X9753Y15967D01*
G01X13257Y15967D02*
G01X9753Y15967D01*
G01X13257Y13365D02*
G01X13257Y14157D01*
G01X13257Y15173D02*
G01X13257Y15963D01*
G01X16700Y10600D02*
G01X16700Y11300D01*
G01X15700Y11300D01*
G01X15700Y10600D01*
G01X15700Y10000D02*
G01X15700Y9300D01*
G01X16700Y9300D01*
G01X16700Y10000D01*
G01X17257Y13369D02*
G01X14164Y13369D01*
G01X13753Y13369D01*
G01X13753Y13369D02*
G01X13753Y15967D01*
G01X17257Y15967D02*
G01X13753Y15967D01*
G01X17257Y13365D02*
G01X17257Y14157D01*
G01X17257Y15173D02*
G01X17257Y15963D01*
G01X20700Y10500D02*
G01X20700Y11200D01*
G01X19700Y11200D01*
G01X19700Y10500D01*
G01X19700Y9900D02*
G01X19700Y9200D01*
G01X20700Y9200D01*
G01X20700Y9900D01*
G54D31*
G01X18700Y6600D02*
G01X17700Y6600D01*
G01X17700Y7600D01*
G01X18700Y7600D01*
G01X18700Y6850D01*
G54D32*
G01X18700Y6600D02*
G01X18700Y6850D01*
G54D31*
G01X17700Y6600D02*
G01X16700Y6600D01*
G01X16700Y7600D01*
G01X17700Y7600D01*
G01X17700Y6850D01*
G54D32*
G01X17700Y6600D02*
G01X17700Y6850D01*
G54D31*
G01X15700Y6600D02*
G01X14700Y6600D01*
G01X14700Y7600D01*
G01X15700Y7600D01*
G01X15700Y6850D01*
G54D32*
G01X15700Y6600D02*
G01X15700Y6850D01*
G54D31*
G01X16700Y6600D02*
G01X15700Y6600D01*
G01X15700Y7600D01*
G01X16700Y7600D01*
G01X16700Y6850D01*
G54D32*
G01X16700Y6600D02*
G01X16700Y6850D01*
G54D31*
G01X11700Y6600D02*
G01X10700Y6600D01*
G01X10700Y7600D01*
G01X11700Y7600D01*
G01X11700Y6850D01*
G54D32*
G01X11700Y6600D02*
G01X11700Y6850D01*
G54D31*
G01X12700Y6600D02*
G01X11700Y6600D01*
G01X11700Y7600D01*
G01X12700Y7600D01*
G01X12700Y6850D01*
G54D32*
G01X12700Y6600D02*
G01X12700Y6850D01*
G54D31*
G01X7700Y6600D02*
G01X6700Y6600D01*
G01X6700Y7600D01*
G01X7700Y7600D01*
G01X7700Y6850D01*
G54D32*
G01X7700Y6600D02*
G01X7700Y6850D01*
G54D31*
G01X8700Y6600D02*
G01X7700Y6600D01*
G01X7700Y7600D01*
G01X8700Y7600D01*
G01X8700Y6850D01*
G54D32*
G01X8700Y6600D02*
G01X8700Y6850D01*
G54D31*
G01X5700Y6600D02*
G01X4700Y6600D01*
G01X4700Y7600D01*
G01X5700Y7600D01*
G01X5700Y6850D01*
G54D32*
G01X5700Y6600D02*
G01X5700Y6850D01*
G54D31*
G01X6700Y6600D02*
G01X5700Y6600D01*
G01X5700Y7600D01*
G01X6700Y7600D01*
G01X6700Y6850D01*
G54D32*
G01X6700Y6600D02*
G01X6700Y6850D01*
G54D31*
G01X19700Y6600D02*
G01X18700Y6600D01*
G01X18700Y7600D01*
G01X19700Y7600D01*
G01X19700Y6850D01*
G54D32*
G01X19700Y6600D02*
G01X19700Y6850D01*
G54D31*
G01X20700Y6600D02*
G01X19700Y6600D01*
G01X19700Y7600D01*
G01X20700Y7600D01*
G01X20700Y6850D01*
G54D32*
G01X20700Y6600D02*
G01X20700Y6850D01*
G54D31*
G01X14700Y6600D02*
G01X13700Y6600D01*
G01X13700Y7600D01*
G01X14700Y7600D01*
G01X14700Y6850D01*
G54D32*
G01X14700Y6600D02*
G01X14700Y6850D01*
G54D31*
G01X13700Y6600D02*
G01X12700Y6600D01*
G01X12700Y7600D01*
G01X13700Y7600D01*
G01X13700Y6850D01*
G54D32*
G01X13700Y6600D02*
G01X13700Y6850D01*
G54D31*
G01X10700Y6600D02*
G01X9700Y6600D01*
G01X9700Y7600D01*
G01X10700Y7600D01*
G01X10700Y6850D01*
G54D32*
G01X10700Y6600D02*
G01X10700Y6850D01*
G54D31*
G01X9700Y6600D02*
G01X8700Y6600D01*
G01X8700Y7600D01*
G01X9700Y7600D01*
G01X9700Y6850D01*
G54D32*
G01X9700Y6600D02*
G01X9700Y6850D01*

G04 ---------------------------- track end*

G04 ---------------------------- text start*
G54D33*
G01X15428Y10700D02*
G01X15000Y10700D01*
G01X15428Y10700D02*
G01X15428Y10516D01*
G01X15409Y10455D01*
G01X15389Y10434D01*
G01X15347Y10414D01*
G01X15306Y10414D01*
G01X15265Y10434D01*
G01X15244Y10455D01*
G01X15225Y10516D01*
G01X15225Y10700D01*
G01X15225Y10557D02*
G01X15000Y10414D01*
G01X15347Y10279D02*
G01X15368Y10238D01*
G01X15428Y10176D01*
G01X15000Y10176D01*
G01X15327Y10021D02*
G01X15347Y10021D01*
G01X15389Y10000D01*
G01X15409Y9980D01*
G01X15428Y9939D01*
G01X15428Y9857D01*
G01X15409Y9816D01*
G01X15389Y9796D01*
G01X15347Y9775D01*
G01X15306Y9775D01*
G01X15265Y9796D01*
G01X15203Y9837D01*
G01X15000Y10041D01*
G01X15000Y9755D01*
G01X5300Y16291D02*
G01X5606Y16291D01*
G01X5668Y16311D01*
G01X5709Y16352D01*
G01X5729Y16414D01*
G01X5729Y16455D01*
G01X5709Y16516D01*
G01X5668Y16557D01*
G01X5606Y16577D01*
G01X5300Y16577D01*
G01X5300Y16753D02*
G01X5300Y16978D01*
G01X5463Y16856D01*
G01X5463Y16917D01*
G01X5484Y16958D01*
G01X5504Y16978D01*
G01X5565Y16999D01*
G01X5606Y16999D01*
G01X5668Y16978D01*
G01X5709Y16937D01*
G01X5729Y16876D01*
G01X5729Y16815D01*
G01X5709Y16753D01*
G01X5688Y16733D01*
G01X5647Y16712D01*
G01X3855Y11800D02*
G01X4284Y11800D01*
G01X3855Y11800D02*
G01X3855Y11942D01*
G01X3875Y12005D01*
G01X3915Y12044D01*
G01X3957Y12065D01*
G01X4017Y12086D01*
G01X4119Y12086D01*
G01X4182Y12065D01*
G01X4223Y12044D01*
G01X4263Y12005D01*
G01X4284Y11942D01*
G01X4284Y11800D01*
G01X3855Y12467D02*
G01X3855Y12261D01*
G01X4038Y12242D01*
G01X4017Y12261D01*
G01X3998Y12323D01*
G01X3998Y12384D01*
G01X4017Y12446D01*
G01X4059Y12486D01*
G01X4119Y12507D01*
G01X4161Y12507D01*
G01X4223Y12486D01*
G01X4263Y12446D01*
G01X4284Y12384D01*
G01X4284Y12323D01*
G01X4263Y12261D01*
G01X4242Y12242D01*
G01X4201Y12221D01*
G01X1955Y11800D02*
G01X2384Y11800D01*
G01X1955Y11800D02*
G01X1955Y11942D01*
G01X1975Y12005D01*
G01X2015Y12044D01*
G01X2057Y12065D01*
G01X2117Y12086D01*
G01X2219Y12086D01*
G01X2282Y12065D01*
G01X2323Y12044D01*
G01X2363Y12005D01*
G01X2384Y11942D01*
G01X2384Y11800D01*
G01X2015Y12467D02*
G01X1975Y12446D01*
G01X1955Y12384D01*
G01X1955Y12344D01*
G01X1975Y12282D01*
G01X2036Y12242D01*
G01X2138Y12221D01*
G01X2240Y12221D01*
G01X2323Y12242D01*
G01X2363Y12282D01*
G01X2384Y12344D01*
G01X2384Y12365D01*
G01X2363Y12426D01*
G01X2323Y12467D01*
G01X2261Y12486D01*
G01X2240Y12486D01*
G01X2180Y12467D01*
G01X2138Y12426D01*
G01X2117Y12365D01*
G01X2117Y12344D01*
G01X2138Y12282D01*
G01X2180Y12242D01*
G01X2240Y12221D01*
G01X19200Y12200D02*
G01X19200Y11894D01*
G01X19219Y11832D01*
G01X19260Y11790D01*
G01X19322Y11771D01*
G01X19364Y11771D01*
G01X19425Y11790D01*
G01X19465Y11832D01*
G01X19485Y11894D01*
G01X19485Y12200D01*
G01X19867Y12138D02*
G01X19846Y12180D01*
G01X19785Y12200D01*
G01X19743Y12200D01*
G01X19682Y12180D01*
G01X19642Y12119D01*
G01X19621Y12015D01*
G01X19621Y11913D01*
G01X19642Y11832D01*
G01X19682Y11790D01*
G01X19743Y11771D01*
G01X19764Y11771D01*
G01X19826Y11790D01*
G01X19867Y11832D01*
G01X19886Y11894D01*
G01X19886Y11913D01*
G01X19867Y11975D01*
G01X19826Y12015D01*
G01X19764Y12036D01*
G01X19743Y12036D01*
G01X19682Y12015D01*
G01X19642Y11975D01*
G01X19621Y11913D01*
G01X899Y8299D02*
G01X899Y7870D01*
G01X1185Y8299D02*
G01X1185Y7870D01*
G01X899Y8095D02*
G01X1185Y8095D01*
G01X1341Y8197D02*
G01X1341Y8218D01*
G01X1361Y8259D01*
G01X1382Y8279D01*
G01X1423Y8299D01*
G01X1504Y8299D01*
G01X1545Y8279D01*
G01X1566Y8259D01*
G01X1586Y8218D01*
G01X1586Y8177D01*
G01X1566Y8136D01*
G01X1525Y8074D01*
G01X1320Y7870D01*
G01X1607Y7870D01*
G01X12176Y4099D02*
G01X12176Y3670D01*
G01X12461Y4099D02*
G01X12461Y3670D01*
G01X12176Y3895D02*
G01X12461Y3895D01*
G01X12597Y4018D02*
G01X12638Y4038D01*
G01X12700Y4099D01*
G01X12700Y3670D01*
G01X10300Y17892D02*
G01X10729Y17892D01*
G01X10300Y17892D02*
G01X10300Y18076D01*
G01X10320Y18136D01*
G01X10340Y18157D01*
G01X10381Y18178D01*
G01X10422Y18178D01*
G01X10463Y18157D01*
G01X10484Y18136D01*
G01X10504Y18076D01*
G01X10504Y17892D01*
G01X10504Y18034D02*
G01X10729Y18178D01*
G01X10300Y18353D02*
G01X10300Y18578D01*
G01X10463Y18457D01*
G01X10463Y18517D01*
G01X10484Y18559D01*
G01X10504Y18578D01*
G01X10565Y18600D01*
G01X10606Y18600D01*
G01X10668Y18578D01*
G01X10709Y18538D01*
G01X10729Y18477D01*
G01X10729Y18415D01*
G01X10709Y18353D01*
G01X10688Y18334D01*
G01X10647Y18313D01*
G01X15500Y18500D02*
G01X15500Y18071D01*
G01X15500Y18500D02*
G01X15684Y18500D01*
G01X15745Y18480D01*
G01X15766Y18459D01*
G01X15786Y18419D01*
G01X15786Y18378D01*
G01X15766Y18336D01*
G01X15745Y18315D01*
G01X15684Y18296D01*
G01X15500Y18296D01*
G01X15643Y18296D02*
G01X15786Y18071D01*
G01X15921Y18419D02*
G01X15962Y18438D01*
G01X16024Y18500D01*
G01X16024Y18071D01*
G01X18686Y19690D02*
G01X18686Y19261D01*
G01X18686Y19690D02*
G01X18871Y19690D01*
G01X18931Y19670D01*
G01X18952Y19650D01*
G01X18972Y19609D01*
G01X18972Y19568D01*
G01X18952Y19527D01*
G01X18931Y19506D01*
G01X18871Y19486D01*
G01X18686Y19486D01*
G01X18830Y19486D02*
G01X18972Y19261D01*
G01X19373Y19547D02*
G01X19353Y19486D01*
G01X19313Y19445D01*
G01X19252Y19425D01*
G01X19231Y19425D01*
G01X19169Y19445D01*
G01X19128Y19486D01*
G01X19107Y19547D01*
G01X19107Y19568D01*
G01X19128Y19629D01*
G01X19169Y19670D01*
G01X19231Y19690D01*
G01X19252Y19690D01*
G01X19313Y19670D01*
G01X19353Y19629D01*
G01X19373Y19547D01*
G01X19373Y19445D01*
G01X19353Y19343D01*
G01X19313Y19281D01*
G01X19252Y19261D01*
G01X19210Y19261D01*
G01X19148Y19281D01*
G01X19128Y19322D01*
G01X7529Y10400D02*
G01X7100Y10400D01*
G01X7529Y10400D02*
G01X7529Y10216D01*
G01X7509Y10155D01*
G01X7489Y10134D01*
G01X7448Y10114D01*
G01X7407Y10114D01*
G01X7366Y10134D01*
G01X7345Y10155D01*
G01X7325Y10216D01*
G01X7325Y10400D01*
G01X7325Y10257D02*
G01X7100Y10114D01*
G01X7468Y9733D02*
G01X7509Y9754D01*
G01X7529Y9815D01*
G01X7529Y9856D01*
G01X7509Y9917D01*
G01X7448Y9958D01*
G01X7345Y9979D01*
G01X7243Y9979D01*
G01X7161Y9958D01*
G01X7120Y9917D01*
G01X7100Y9856D01*
G01X7100Y9835D01*
G01X7120Y9774D01*
G01X7161Y9733D01*
G01X7223Y9713D01*
G01X7243Y9713D01*
G01X7304Y9733D01*
G01X7345Y9774D01*
G01X7366Y9835D01*
G01X7366Y9856D01*
G01X7345Y9917D01*
G01X7304Y9958D01*
G01X7243Y9979D01*
G01X11300Y12300D02*
G01X11300Y11994D01*
G01X11319Y11932D01*
G01X11360Y11890D01*
G01X11422Y11871D01*
G01X11464Y11871D01*
G01X11525Y11890D01*
G01X11565Y11932D01*
G01X11585Y11994D01*
G01X11585Y12300D01*
G01X11967Y12300D02*
G01X11761Y12300D01*
G01X11742Y12115D01*
G01X11761Y12136D01*
G01X11823Y12157D01*
G01X11885Y12157D01*
G01X11946Y12136D01*
G01X11986Y12096D01*
G01X12007Y12034D01*
G01X12007Y11994D01*
G01X11986Y11932D01*
G01X11946Y11890D01*
G01X11885Y11871D01*
G01X11823Y11871D01*
G01X11761Y11890D01*
G01X11742Y11911D01*
G01X11721Y11953D01*
G01X5500Y18500D02*
G01X5500Y18071D01*
G01X5500Y18500D02*
G01X5684Y18500D01*
G01X5744Y18480D01*
G01X5765Y18460D01*
G01X5785Y18419D01*
G01X5785Y18378D01*
G01X5765Y18337D01*
G01X5744Y18316D01*
G01X5684Y18296D01*
G01X5500Y18296D01*
G01X5643Y18296D02*
G01X5785Y18071D01*
G01X6207Y18500D02*
G01X6002Y18071D01*
G01X5921Y18500D02*
G01X6207Y18500D01*
G01X10900Y9992D02*
G01X11328Y9992D01*
G01X10900Y9992D02*
G01X10900Y10176D01*
G01X10919Y10236D01*
G01X10939Y10257D01*
G01X10981Y10278D01*
G01X11022Y10278D01*
G01X11063Y10257D01*
G01X11084Y10236D01*
G01X11103Y10176D01*
G01X11103Y9992D01*
G01X11103Y10134D02*
G01X11328Y10278D01*
G01X11002Y10434D02*
G01X10981Y10434D01*
G01X10939Y10453D01*
G01X10919Y10475D01*
G01X10900Y10515D01*
G01X10900Y10596D01*
G01X10919Y10638D01*
G01X10939Y10659D01*
G01X10981Y10678D01*
G01X11022Y10678D01*
G01X11063Y10659D01*
G01X11125Y10617D01*
G01X11328Y10413D01*
G01X11328Y10700D01*
G01X7300Y12200D02*
G01X7300Y11894D01*
G01X7319Y11832D01*
G01X7360Y11790D01*
G01X7422Y11771D01*
G01X7464Y11771D01*
G01X7525Y11790D01*
G01X7565Y11832D01*
G01X7585Y11894D01*
G01X7585Y12200D01*
G01X7742Y12098D02*
G01X7742Y12119D01*
G01X7761Y12159D01*
G01X7782Y12180D01*
G01X7823Y12200D01*
G01X7905Y12200D01*
G01X7946Y12180D01*
G01X7967Y12159D01*
G01X7986Y12119D01*
G01X7986Y12078D01*
G01X7967Y12036D01*
G01X7926Y11975D01*
G01X7721Y11771D01*
G01X8007Y11771D01*
G01X15200Y12300D02*
G01X15200Y11994D01*
G01X15219Y11932D01*
G01X15260Y11890D01*
G01X15322Y11871D01*
G01X15364Y11871D01*
G01X15425Y11890D01*
G01X15465Y11932D01*
G01X15485Y11994D01*
G01X15485Y12300D01*
G01X15621Y12219D02*
G01X15661Y12238D01*
G01X15723Y12300D01*
G01X15723Y11871D01*
G01X20999Y9792D02*
G01X21428Y9792D01*
G01X20999Y9792D02*
G01X20999Y9976D01*
G01X21019Y10036D01*
G01X21039Y10057D01*
G01X21080Y10078D01*
G01X21121Y10078D01*
G01X21162Y10057D01*
G01X21183Y10036D01*
G01X21203Y9976D01*
G01X21203Y9792D01*
G01X21203Y9934D02*
G01X21428Y10078D01*
G01X20999Y10315D02*
G01X21019Y10253D01*
G01X21060Y10234D01*
G01X21101Y10234D01*
G01X21142Y10253D01*
G01X21162Y10294D01*
G01X21183Y10376D01*
G01X21203Y10438D01*
G01X21244Y10478D01*
G01X21285Y10500D01*
G01X21346Y10500D01*
G01X21387Y10478D01*
G01X21408Y10459D01*
G01X21428Y10396D01*
G01X21428Y10315D01*
G01X21408Y10253D01*
G01X21387Y10234D01*
G01X21346Y10213D01*
G01X21285Y10213D01*
G01X21244Y10234D01*
G01X21203Y10275D01*
G01X21183Y10336D01*
G01X21162Y10417D01*
G01X21142Y10459D01*
G01X21101Y10478D01*
G01X21060Y10478D01*
G01X21019Y10459D01*
G01X20999Y10396D01*
G01X20999Y10315D01*
G01X16800Y22844D02*
G01X16800Y22415D01*
G01X16800Y22844D02*
G01X16984Y22844D01*
G01X17044Y22825D01*
G01X17065Y22805D01*
G01X17085Y22763D01*
G01X17085Y22702D01*
G01X17065Y22661D01*
G01X17044Y22640D01*
G01X16984Y22619D01*
G01X16800Y22619D01*
G01X17527Y22742D02*
G01X17507Y22784D01*
G01X17467Y22825D01*
G01X17426Y22844D01*
G01X17343Y22844D01*
G01X17302Y22825D01*
G01X17261Y22784D01*
G01X17242Y22742D01*
G01X17221Y22682D01*
G01X17221Y22580D01*
G01X17242Y22517D01*
G01X17261Y22477D01*
G01X17302Y22436D01*
G01X17343Y22415D01*
G01X17426Y22415D01*
G01X17467Y22436D01*
G01X17507Y22477D01*
G01X17527Y22517D01*
G01X17663Y22844D02*
G01X17663Y22415D01*
G01X17663Y22844D02*
G01X17847Y22844D01*
G01X17909Y22825D01*
G01X17928Y22805D01*
G01X17950Y22763D01*
G01X17950Y22723D01*
G01X17928Y22682D01*
G01X17909Y22661D01*
G01X17847Y22640D01*
G01X17663Y22640D02*
G01X17847Y22640D01*
G01X17909Y22619D01*
G01X17928Y22600D01*
G01X17950Y22559D01*
G01X17950Y22498D01*
G01X17928Y22457D01*
G01X17909Y22436D01*
G01X17847Y22415D01*
G01X17663Y22415D01*
G01X18085Y22763D02*
G01X18125Y22784D01*
G01X18186Y22844D01*
G01X18186Y22415D01*
G01X18219Y7978D02*
G01X18200Y7957D01*
G01X18219Y7936D01*
G01X18240Y7957D01*
G01X18219Y7978D01*
G01X17219Y7978D02*
G01X17200Y7957D01*
G01X17219Y7936D01*
G01X17240Y7957D01*
G01X17219Y7978D01*
G01X15219Y7978D02*
G01X15200Y7957D01*
G01X15219Y7936D01*
G01X15240Y7957D01*
G01X15219Y7978D01*
G01X16219Y7978D02*
G01X16200Y7957D01*
G01X16219Y7936D01*
G01X16240Y7957D01*
G01X16219Y7978D01*
G01X11219Y7978D02*
G01X11200Y7957D01*
G01X11219Y7936D01*
G01X11240Y7957D01*
G01X11219Y7978D01*
G01X12219Y7978D02*
G01X12200Y7957D01*
G01X12219Y7936D01*
G01X12240Y7957D01*
G01X12219Y7978D01*
G01X7219Y7978D02*
G01X7200Y7957D01*
G01X7219Y7936D01*
G01X7240Y7957D01*
G01X7219Y7978D01*
G01X8219Y7978D02*
G01X8200Y7957D01*
G01X8219Y7936D01*
G01X8240Y7957D01*
G01X8219Y7978D01*
G01X5219Y7978D02*
G01X5200Y7957D01*
G01X5219Y7936D01*
G01X5240Y7957D01*
G01X5219Y7978D01*
G01X6219Y7978D02*
G01X6200Y7957D01*
G01X6219Y7936D01*
G01X6240Y7957D01*
G01X6219Y7978D01*
G01X19219Y7978D02*
G01X19200Y7957D01*
G01X19219Y7936D01*
G01X19240Y7957D01*
G01X19219Y7978D01*
G01X20219Y7978D02*
G01X20200Y7957D01*
G01X20219Y7936D01*
G01X20240Y7957D01*
G01X20219Y7978D01*
G01X14219Y7978D02*
G01X14200Y7957D01*
G01X14219Y7936D01*
G01X14240Y7957D01*
G01X14219Y7978D01*
G01X13219Y7978D02*
G01X13200Y7957D01*
G01X13219Y7936D01*
G01X13240Y7957D01*
G01X13219Y7978D01*
G01X10219Y7978D02*
G01X10200Y7957D01*
G01X10219Y7936D01*
G01X10240Y7957D01*
G01X10219Y7978D01*
G01X9219Y7978D02*
G01X9200Y7957D01*
G01X9219Y7936D01*
G01X9240Y7957D01*
G01X9219Y7978D01*
G54D31*
G01X5000Y6300D02*
G01X5109Y6013D01*
G01X5218Y6300D02*
G01X5109Y6013D01*
G01X5472Y6203D02*
G01X5472Y6013D01*
G01X5472Y6163D02*
G01X5444Y6190D01*
G01X5417Y6203D01*
G01X5376Y6203D01*
G01X5348Y6190D01*
G01X5322Y6163D01*
G01X5307Y6121D01*
G01X5307Y6094D01*
G01X5322Y6053D01*
G01X5348Y6026D01*
G01X5376Y6013D01*
G01X5417Y6013D01*
G01X5444Y6026D01*
G01X5472Y6053D01*
G01X5561Y6300D02*
G01X5561Y6013D01*
G01X5652Y6203D02*
G01X5734Y6013D01*
G01X5814Y6203D02*
G01X5734Y6013D01*
G01X5905Y6121D02*
G01X6068Y6121D01*
G01X6068Y6150D01*
G01X6055Y6176D01*
G01X6042Y6190D01*
G01X6014Y6203D01*
G01X5973Y6203D01*
G01X5946Y6190D01*
G01X5918Y6163D01*
G01X5905Y6121D01*
G01X5905Y6094D01*
G01X5918Y6053D01*
G01X5946Y6026D01*
G01X5973Y6013D01*
G01X6014Y6013D01*
G01X6042Y6026D01*
G01X6068Y6053D01*
G01X6159Y6244D02*
G01X6185Y6259D01*
G01X6227Y6300D01*
G01X6227Y6013D01*
G01X2336Y7218D02*
G01X2336Y7254D01*
G01X2373Y7327D01*
G01X2409Y7363D01*
G01X2482Y7399D01*
G01X2626Y7399D01*
G01X2700Y7363D01*
G01X2736Y7327D01*
G01X2773Y7254D01*
G01X2773Y7181D01*
G01X2736Y7108D01*
G01X2663Y6999D01*
G01X2300Y6636D01*
G01X2809Y6636D01*
G01X3048Y6963D02*
G01X3703Y6963D01*
G01X2336Y6090D02*
G01X2336Y6126D01*
G01X2373Y6200D01*
G01X2409Y6236D01*
G01X2482Y6271D01*
G01X2626Y6271D01*
G01X2700Y6236D01*
G01X2736Y6200D01*
G01X2773Y6126D01*
G01X2773Y6053D01*
G01X2736Y5980D01*
G01X2663Y5871D01*
G01X2300Y5509D01*
G01X2809Y5509D01*
G01X3376Y6163D02*
G01X3376Y5509D01*
G01X3048Y5836D02*
G01X3703Y5836D01*
G01X2400Y5154D02*
G01X2473Y5190D01*
G01X2582Y5299D01*
G01X2582Y4536D01*
G01X2821Y4863D02*
G01X3476Y4863D01*
G01X2400Y4255D02*
G01X2473Y4290D01*
G01X2582Y4400D01*
G01X2582Y3636D01*
G01X3148Y4290D02*
G01X3148Y3636D01*
G01X2821Y3963D02*
G01X3476Y3963D01*
G01X7000Y6300D02*
G01X7109Y6013D01*
G01X7218Y6300D02*
G01X7109Y6013D01*
G01X7472Y6203D02*
G01X7472Y6013D01*
G01X7472Y6163D02*
G01X7444Y6190D01*
G01X7417Y6203D01*
G01X7376Y6203D01*
G01X7348Y6190D01*
G01X7322Y6163D01*
G01X7307Y6121D01*
G01X7307Y6094D01*
G01X7322Y6053D01*
G01X7348Y6026D01*
G01X7376Y6013D01*
G01X7417Y6013D01*
G01X7444Y6026D01*
G01X7472Y6053D01*
G01X7561Y6300D02*
G01X7561Y6013D01*
G01X7652Y6203D02*
G01X7734Y6013D01*
G01X7814Y6203D02*
G01X7734Y6013D01*
G01X7905Y6121D02*
G01X8068Y6121D01*
G01X8068Y6150D01*
G01X8055Y6176D01*
G01X8042Y6190D01*
G01X8014Y6203D01*
G01X7973Y6203D01*
G01X7946Y6190D01*
G01X7918Y6163D01*
G01X7905Y6121D01*
G01X7905Y6094D01*
G01X7918Y6053D01*
G01X7946Y6026D01*
G01X7973Y6013D01*
G01X8014Y6013D01*
G01X8042Y6026D01*
G01X8068Y6053D01*
G01X8172Y6230D02*
G01X8172Y6244D01*
G01X8185Y6271D01*
G01X8200Y6286D01*
G01X8227Y6300D01*
G01X8281Y6300D01*
G01X8309Y6286D01*
G01X8322Y6271D01*
G01X8335Y6244D01*
G01X8335Y6217D01*
G01X8322Y6190D01*
G01X8294Y6150D01*
G01X8159Y6013D01*
G01X8350Y6013D01*
G01X9000Y6300D02*
G01X9109Y6013D01*
G01X9218Y6300D02*
G01X9109Y6013D01*
G01X9472Y6203D02*
G01X9472Y6013D01*
G01X9472Y6163D02*
G01X9444Y6190D01*
G01X9417Y6203D01*
G01X9376Y6203D01*
G01X9348Y6190D01*
G01X9322Y6163D01*
G01X9307Y6121D01*
G01X9307Y6094D01*
G01X9322Y6053D01*
G01X9348Y6026D01*
G01X9376Y6013D01*
G01X9417Y6013D01*
G01X9444Y6026D01*
G01X9472Y6053D01*
G01X9561Y6300D02*
G01X9561Y6013D01*
G01X9652Y6203D02*
G01X9734Y6013D01*
G01X9814Y6203D02*
G01X9734Y6013D01*
G01X9905Y6121D02*
G01X10068Y6121D01*
G01X10068Y6150D01*
G01X10055Y6176D01*
G01X10042Y6190D01*
G01X10014Y6203D01*
G01X9973Y6203D01*
G01X9946Y6190D01*
G01X9918Y6163D01*
G01X9905Y6121D01*
G01X9905Y6094D01*
G01X9918Y6053D01*
G01X9946Y6026D01*
G01X9973Y6013D01*
G01X10014Y6013D01*
G01X10042Y6026D01*
G01X10068Y6053D01*
G01X10185Y6300D02*
G01X10335Y6300D01*
G01X10255Y6190D01*
G01X10294Y6190D01*
G01X10322Y6176D01*
G01X10335Y6163D01*
G01X10350Y6121D01*
G01X10350Y6094D01*
G01X10335Y6053D01*
G01X10309Y6026D01*
G01X10268Y6013D01*
G01X10227Y6013D01*
G01X10185Y6026D01*
G01X10172Y6040D01*
G01X10159Y6067D01*
G01X11000Y6300D02*
G01X11109Y6013D01*
G01X11218Y6300D02*
G01X11109Y6013D01*
G01X11472Y6203D02*
G01X11472Y6013D01*
G01X11472Y6163D02*
G01X11444Y6190D01*
G01X11417Y6203D01*
G01X11376Y6203D01*
G01X11348Y6190D01*
G01X11322Y6163D01*
G01X11307Y6121D01*
G01X11307Y6094D01*
G01X11322Y6053D01*
G01X11348Y6026D01*
G01X11376Y6013D01*
G01X11417Y6013D01*
G01X11444Y6026D01*
G01X11472Y6053D01*
G01X11561Y6300D02*
G01X11561Y6013D01*
G01X11652Y6203D02*
G01X11734Y6013D01*
G01X11814Y6203D02*
G01X11734Y6013D01*
G01X11905Y6121D02*
G01X12068Y6121D01*
G01X12068Y6150D01*
G01X12055Y6176D01*
G01X12042Y6190D01*
G01X12014Y6203D01*
G01X11973Y6203D01*
G01X11946Y6190D01*
G01X11918Y6163D01*
G01X11905Y6121D01*
G01X11905Y6094D01*
G01X11918Y6053D01*
G01X11946Y6026D01*
G01X11973Y6013D01*
G01X12014Y6013D01*
G01X12042Y6026D01*
G01X12068Y6053D01*
G01X12294Y6300D02*
G01X12159Y6109D01*
G01X12364Y6109D01*
G01X12294Y6300D02*
G01X12294Y6013D01*
G01X13000Y6300D02*
G01X13109Y6013D01*
G01X13218Y6300D02*
G01X13109Y6013D01*
G01X13472Y6203D02*
G01X13472Y6013D01*
G01X13472Y6163D02*
G01X13444Y6190D01*
G01X13417Y6203D01*
G01X13376Y6203D01*
G01X13348Y6190D01*
G01X13322Y6163D01*
G01X13307Y6121D01*
G01X13307Y6094D01*
G01X13322Y6053D01*
G01X13348Y6026D01*
G01X13376Y6013D01*
G01X13417Y6013D01*
G01X13444Y6026D01*
G01X13472Y6053D01*
G01X13561Y6300D02*
G01X13561Y6013D01*
G01X13652Y6203D02*
G01X13734Y6013D01*
G01X13814Y6203D02*
G01X13734Y6013D01*
G01X13905Y6121D02*
G01X14068Y6121D01*
G01X14068Y6150D01*
G01X14055Y6176D01*
G01X14042Y6190D01*
G01X14014Y6203D01*
G01X13973Y6203D01*
G01X13946Y6190D01*
G01X13918Y6163D01*
G01X13905Y6121D01*
G01X13905Y6094D01*
G01X13918Y6053D01*
G01X13946Y6026D01*
G01X13973Y6013D01*
G01X14014Y6013D01*
G01X14042Y6026D01*
G01X14068Y6053D01*
G01X14322Y6300D02*
G01X14185Y6300D01*
G01X14172Y6176D01*
G01X14185Y6190D01*
G01X14227Y6203D01*
G01X14268Y6203D01*
G01X14309Y6190D01*
G01X14335Y6163D01*
G01X14350Y6121D01*
G01X14350Y6094D01*
G01X14335Y6053D01*
G01X14309Y6026D01*
G01X14268Y6013D01*
G01X14227Y6013D01*
G01X14185Y6026D01*
G01X14172Y6040D01*
G01X14159Y6067D01*
G01X15000Y6300D02*
G01X15109Y6013D01*
G01X15218Y6300D02*
G01X15109Y6013D01*
G01X15472Y6203D02*
G01X15472Y6013D01*
G01X15472Y6163D02*
G01X15444Y6190D01*
G01X15417Y6203D01*
G01X15376Y6203D01*
G01X15348Y6190D01*
G01X15322Y6163D01*
G01X15307Y6121D01*
G01X15307Y6094D01*
G01X15322Y6053D01*
G01X15348Y6026D01*
G01X15376Y6013D01*
G01X15417Y6013D01*
G01X15444Y6026D01*
G01X15472Y6053D01*
G01X15561Y6300D02*
G01X15561Y6013D01*
G01X15652Y6203D02*
G01X15734Y6013D01*
G01X15814Y6203D02*
G01X15734Y6013D01*
G01X15905Y6121D02*
G01X16068Y6121D01*
G01X16068Y6150D01*
G01X16055Y6176D01*
G01X16042Y6190D01*
G01X16014Y6203D01*
G01X15973Y6203D01*
G01X15946Y6190D01*
G01X15918Y6163D01*
G01X15905Y6121D01*
G01X15905Y6094D01*
G01X15918Y6053D01*
G01X15946Y6026D01*
G01X15973Y6013D01*
G01X16014Y6013D01*
G01X16042Y6026D01*
G01X16068Y6053D01*
G01X16322Y6259D02*
G01X16309Y6286D01*
G01X16268Y6300D01*
G01X16240Y6300D01*
G01X16200Y6286D01*
G01X16172Y6244D01*
G01X16159Y6176D01*
G01X16159Y6109D01*
G01X16172Y6053D01*
G01X16200Y6026D01*
G01X16240Y6013D01*
G01X16255Y6013D01*
G01X16294Y6026D01*
G01X16322Y6053D01*
G01X16335Y6094D01*
G01X16335Y6109D01*
G01X16322Y6150D01*
G01X16294Y6176D01*
G01X16255Y6190D01*
G01X16240Y6190D01*
G01X16200Y6176D01*
G01X16172Y6150D01*
G01X16159Y6109D01*
G01X17000Y6300D02*
G01X17109Y6013D01*
G01X17218Y6300D02*
G01X17109Y6013D01*
G01X17472Y6203D02*
G01X17472Y6013D01*
G01X17472Y6163D02*
G01X17444Y6190D01*
G01X17417Y6203D01*
G01X17376Y6203D01*
G01X17348Y6190D01*
G01X17322Y6163D01*
G01X17307Y6121D01*
G01X17307Y6094D01*
G01X17322Y6053D01*
G01X17348Y6026D01*
G01X17376Y6013D01*
G01X17417Y6013D01*
G01X17444Y6026D01*
G01X17472Y6053D01*
G01X17561Y6300D02*
G01X17561Y6013D01*
G01X17652Y6203D02*
G01X17734Y6013D01*
G01X17814Y6203D02*
G01X17734Y6013D01*
G01X17905Y6121D02*
G01X18068Y6121D01*
G01X18068Y6150D01*
G01X18055Y6176D01*
G01X18042Y6190D01*
G01X18014Y6203D01*
G01X17973Y6203D01*
G01X17946Y6190D01*
G01X17918Y6163D01*
G01X17905Y6121D01*
G01X17905Y6094D01*
G01X17918Y6053D01*
G01X17946Y6026D01*
G01X17973Y6013D01*
G01X18014Y6013D01*
G01X18042Y6026D01*
G01X18068Y6053D01*
G01X18350Y6300D02*
G01X18214Y6013D01*
G01X18159Y6300D02*
G01X18350Y6300D01*
G01X19000Y6300D02*
G01X19109Y6013D01*
G01X19218Y6300D02*
G01X19109Y6013D01*
G01X19472Y6203D02*
G01X19472Y6013D01*
G01X19472Y6163D02*
G01X19444Y6190D01*
G01X19417Y6203D01*
G01X19376Y6203D01*
G01X19348Y6190D01*
G01X19322Y6163D01*
G01X19307Y6121D01*
G01X19307Y6094D01*
G01X19322Y6053D01*
G01X19348Y6026D01*
G01X19376Y6013D01*
G01X19417Y6013D01*
G01X19444Y6026D01*
G01X19472Y6053D01*
G01X19561Y6300D02*
G01X19561Y6013D01*
G01X19652Y6203D02*
G01X19734Y6013D01*
G01X19814Y6203D02*
G01X19734Y6013D01*
G01X19905Y6121D02*
G01X20068Y6121D01*
G01X20068Y6150D01*
G01X20055Y6176D01*
G01X20042Y6190D01*
G01X20014Y6203D01*
G01X19973Y6203D01*
G01X19946Y6190D01*
G01X19918Y6163D01*
G01X19905Y6121D01*
G01X19905Y6094D01*
G01X19918Y6053D01*
G01X19946Y6026D01*
G01X19973Y6013D01*
G01X20014Y6013D01*
G01X20042Y6026D01*
G01X20068Y6053D01*
G01X20227Y6300D02*
G01X20185Y6286D01*
G01X20172Y6259D01*
G01X20172Y6230D01*
G01X20185Y6203D01*
G01X20214Y6190D01*
G01X20268Y6176D01*
G01X20309Y6163D01*
G01X20335Y6136D01*
G01X20350Y6109D01*
G01X20350Y6067D01*
G01X20335Y6040D01*
G01X20322Y6026D01*
G01X20281Y6013D01*
G01X20227Y6013D01*
G01X20185Y6026D01*
G01X20172Y6040D01*
G01X20159Y6067D01*
G01X20159Y6109D01*
G01X20172Y6136D01*
G01X20200Y6163D01*
G01X20240Y6176D01*
G01X20294Y6190D01*
G01X20322Y6203D01*
G01X20335Y6230D01*
G01X20335Y6259D01*
G01X20322Y6286D01*
G01X20281Y6300D01*
G01X20227Y6300D01*
G01X15500Y474D02*
G01X15882Y474D01*
G01X15500Y474D02*
G01X15500Y638D01*
G01X15518Y692D01*
G01X15536Y710D01*
G01X15573Y729D01*
G01X15627Y729D01*
G01X15663Y710D01*
G01X15682Y692D01*
G01X15700Y638D01*
G01X15700Y474D01*
G01X15627Y939D02*
G01X15645Y903D01*
G01X15682Y867D01*
G01X15736Y849D01*
G01X15773Y849D01*
G01X15827Y867D01*
G01X15863Y903D01*
G01X15882Y939D01*
G01X15882Y994D01*
G01X15863Y1030D01*
G01X15827Y1067D01*
G01X15773Y1085D01*
G01X15736Y1085D01*
G01X15682Y1067D01*
G01X15645Y1030D01*
G01X15627Y994D01*
G01X15627Y939D01*
G01X15627Y1205D02*
G01X15882Y1278D01*
G01X15627Y1350D02*
G01X15882Y1278D01*
G01X15627Y1350D02*
G01X15882Y1423D01*
G01X15627Y1496D02*
G01X15882Y1423D01*
G01X15736Y1616D02*
G01X15736Y1834D01*
G01X15700Y1834D01*
G01X15663Y1816D01*
G01X15645Y1798D01*
G01X15627Y1761D01*
G01X15627Y1707D01*
G01X15645Y1670D01*
G01X15682Y1634D01*
G01X15736Y1616D01*
G01X15773Y1616D01*
G01X15827Y1634D01*
G01X15863Y1670D01*
G01X15882Y1707D01*
G01X15882Y1761D01*
G01X15863Y1798D01*
G01X15827Y1834D01*
G01X15627Y1954D02*
G01X15882Y1954D01*
G01X15736Y1954D02*
G01X15682Y1972D01*
G01X15645Y2009D01*
G01X15627Y2045D01*
G01X15627Y2099D01*
G01X14591Y500D02*
G01X14554Y482D01*
G01X14518Y444D01*
G01X14500Y409D01*
G01X14500Y336D01*
G01X14518Y300D01*
G01X14554Y263D01*
G01X14591Y244D01*
G01X14645Y226D01*
G01X14736Y226D01*
G01X14791Y244D01*
G01X14827Y263D01*
G01X14863Y300D01*
G01X14882Y336D01*
G01X14882Y409D01*
G01X14863Y444D01*
G01X14827Y482D01*
G01X14791Y500D01*
G01X14736Y500D01*
G01X14736Y409D02*
G01X14736Y500D01*
G01X14627Y619D02*
G01X14882Y619D01*
G01X14736Y619D02*
G01X14682Y638D01*
G01X14645Y673D01*
G01X14627Y711D01*
G01X14627Y765D01*
G01X14627Y976D02*
G01X14645Y940D01*
G01X14682Y903D01*
G01X14736Y884D01*
G01X14773Y884D01*
G01X14827Y903D01*
G01X14863Y940D01*
G01X14882Y976D01*
G01X14882Y1030D01*
G01X14863Y1067D01*
G01X14827Y1103D01*
G01X14773Y1121D01*
G01X14736Y1121D01*
G01X14682Y1103D01*
G01X14645Y1067D01*
G01X14627Y1030D01*
G01X14627Y976D01*
G01X14627Y1242D02*
G01X14809Y1242D01*
G01X14863Y1259D01*
G01X14882Y1296D01*
G01X14882Y1351D01*
G01X14863Y1386D01*
G01X14809Y1442D01*
G01X14627Y1442D02*
G01X14882Y1442D01*
G01X14627Y1561D02*
G01X14882Y1561D01*
G01X14700Y1561D02*
G01X14645Y1615D01*
G01X14627Y1651D01*
G01X14627Y1707D01*
G01X14645Y1742D01*
G01X14700Y1761D01*
G01X14882Y1761D01*
G01X14500Y2100D02*
G01X14882Y2100D01*
G01X14682Y2100D02*
G01X14645Y2063D01*
G01X14627Y2026D01*
G01X14627Y1971D01*
G01X14645Y1936D01*
G01X14682Y1900D01*
G01X14736Y1882D01*
G01X14773Y1882D01*
G01X14827Y1900D01*
G01X14863Y1936D01*
G01X14882Y1971D01*
G01X14882Y2026D01*
G01X14863Y2063D01*
G01X14827Y2100D01*
G01X8500Y594D02*
G01X8882Y339D01*
G01X8500Y339D02*
G01X8500Y594D01*
G01X8882Y339D02*
G01X8882Y594D01*
G01X8627Y804D02*
G01X8645Y768D01*
G01X8682Y732D01*
G01X8736Y714D01*
G01X8773Y714D01*
G01X8827Y732D01*
G01X8863Y768D01*
G01X8882Y804D01*
G01X8882Y859D01*
G01X8863Y895D01*
G01X8827Y932D01*
G01X8773Y950D01*
G01X8736Y950D01*
G01X8682Y932D01*
G01X8645Y895D01*
G01X8627Y859D01*
G01X8627Y804D01*
G01X8627Y1070D02*
G01X8882Y1070D01*
G01X8700Y1070D02*
G01X8645Y1124D01*
G01X8627Y1161D01*
G01X8627Y1215D01*
G01X8645Y1252D01*
G01X8700Y1270D01*
G01X8882Y1270D01*
G01X8736Y1390D02*
G01X8736Y1608D01*
G01X8700Y1608D01*
G01X8663Y1590D01*
G01X8645Y1572D01*
G01X8627Y1535D01*
G01X8627Y1481D01*
G01X8645Y1444D01*
G01X8682Y1408D01*
G01X8736Y1390D01*
G01X8773Y1390D01*
G01X8827Y1408D01*
G01X8863Y1444D01*
G01X8882Y1481D01*
G01X8882Y1535D01*
G01X8863Y1572D01*
G01X8827Y1608D01*
G01X8573Y2008D02*
G01X8554Y2044D01*
G01X8500Y2099D01*
G01X8882Y2099D01*
G01X9600Y530D02*
G01X9982Y276D01*
G01X9600Y276D02*
G01X9600Y530D01*
G01X9982Y276D02*
G01X9982Y530D01*
G01X9727Y740D02*
G01X9745Y705D01*
G01X9782Y669D01*
G01X9836Y651D01*
G01X9873Y651D01*
G01X9927Y669D01*
G01X9963Y705D01*
G01X9982Y740D01*
G01X9982Y796D01*
G01X9963Y832D01*
G01X9927Y869D01*
G01X9873Y886D01*
G01X9836Y886D01*
G01X9782Y869D01*
G01X9745Y832D01*
G01X9727Y796D01*
G01X9727Y740D01*
G01X9727Y1007D02*
G01X9982Y1007D01*
G01X9800Y1007D02*
G01X9745Y1061D01*
G01X9727Y1098D01*
G01X9727Y1151D01*
G01X9745Y1188D01*
G01X9800Y1207D01*
G01X9982Y1207D01*
G01X9836Y1326D02*
G01X9836Y1544D01*
G01X9800Y1544D01*
G01X9763Y1526D01*
G01X9745Y1509D01*
G01X9727Y1471D01*
G01X9727Y1417D01*
G01X9745Y1380D01*
G01X9782Y1344D01*
G01X9836Y1326D01*
G01X9873Y1326D01*
G01X9927Y1344D01*
G01X9963Y1380D01*
G01X9982Y1417D01*
G01X9982Y1471D01*
G01X9963Y1509D01*
G01X9927Y1544D01*
G01X9691Y1963D02*
G01X9673Y1963D01*
G01X9636Y1980D01*
G01X9618Y2000D01*
G01X9600Y2036D01*
G01X9600Y2109D01*
G01X9618Y2144D01*
G01X9636Y2163D01*
G01X9673Y2180D01*
G01X9709Y2180D01*
G01X9745Y2163D01*
G01X9800Y2126D01*
G01X9982Y1944D01*
G01X9982Y2200D01*
G01X10600Y530D02*
G01X10982Y275D01*
G01X10600Y275D02*
G01X10600Y530D01*
G01X10982Y275D02*
G01X10982Y530D01*
G01X10727Y740D02*
G01X10745Y704D01*
G01X10782Y668D01*
G01X10836Y650D01*
G01X10873Y650D01*
G01X10927Y668D01*
G01X10963Y704D01*
G01X10982Y740D01*
G01X10982Y795D01*
G01X10963Y831D01*
G01X10927Y868D01*
G01X10873Y886D01*
G01X10836Y886D01*
G01X10782Y868D01*
G01X10745Y831D01*
G01X10727Y795D01*
G01X10727Y740D01*
G01X10727Y1006D02*
G01X10982Y1006D01*
G01X10800Y1006D02*
G01X10745Y1060D01*
G01X10727Y1097D01*
G01X10727Y1151D01*
G01X10745Y1188D01*
G01X10800Y1206D01*
G01X10982Y1206D01*
G01X10836Y1326D02*
G01X10836Y1544D01*
G01X10800Y1544D01*
G01X10763Y1526D01*
G01X10745Y1508D01*
G01X10727Y1471D01*
G01X10727Y1417D01*
G01X10745Y1380D01*
G01X10782Y1344D01*
G01X10836Y1326D01*
G01X10873Y1326D01*
G01X10927Y1344D01*
G01X10963Y1380D01*
G01X10982Y1417D01*
G01X10982Y1471D01*
G01X10963Y1508D01*
G01X10927Y1544D01*
G01X10600Y1980D02*
G01X10600Y2180D01*
G01X10745Y2071D01*
G01X10745Y2126D01*
G01X10763Y2162D01*
G01X10782Y2180D01*
G01X10836Y2199D01*
G01X10873Y2199D01*
G01X10927Y2180D01*
G01X10963Y2144D01*
G01X10982Y2090D01*
G01X10982Y2035D01*
G01X10963Y1980D01*
G01X10945Y1962D01*
G01X10909Y1944D01*
G01X11600Y513D02*
G01X11982Y257D01*
G01X11600Y257D02*
G01X11600Y513D01*
G01X11982Y257D02*
G01X11982Y513D01*
G01X11727Y723D02*
G01X11745Y686D01*
G01X11782Y651D01*
G01X11836Y632D01*
G01X11873Y632D01*
G01X11927Y651D01*
G01X11963Y686D01*
G01X11982Y723D01*
G01X11982Y778D01*
G01X11963Y813D01*
G01X11927Y851D01*
G01X11873Y869D01*
G01X11836Y869D01*
G01X11782Y851D01*
G01X11745Y813D01*
G01X11727Y778D01*
G01X11727Y723D01*
G01X11727Y988D02*
G01X11982Y988D01*
G01X11800Y988D02*
G01X11745Y1042D01*
G01X11727Y1080D01*
G01X11727Y1134D01*
G01X11745Y1171D01*
G01X11800Y1188D01*
G01X11982Y1188D01*
G01X11836Y1309D02*
G01X11836Y1526D01*
G01X11800Y1526D01*
G01X11763Y1509D01*
G01X11745Y1490D01*
G01X11727Y1453D01*
G01X11727Y1400D01*
G01X11745Y1363D01*
G01X11782Y1326D01*
G01X11836Y1309D01*
G01X11873Y1309D01*
G01X11927Y1326D01*
G01X11963Y1363D01*
G01X11982Y1400D01*
G01X11982Y1453D01*
G01X11963Y1490D01*
G01X11927Y1526D01*
G01X11600Y2109D02*
G01X11854Y1926D01*
G01X11854Y2200D01*
G01X11600Y2109D02*
G01X11982Y2109D01*
G01X12500Y530D02*
G01X12882Y276D01*
G01X12500Y276D02*
G01X12500Y530D01*
G01X12882Y276D02*
G01X12882Y530D01*
G01X12627Y740D02*
G01X12645Y705D01*
G01X12682Y669D01*
G01X12736Y651D01*
G01X12773Y651D01*
G01X12827Y669D01*
G01X12863Y705D01*
G01X12882Y740D01*
G01X12882Y796D01*
G01X12863Y832D01*
G01X12827Y869D01*
G01X12773Y886D01*
G01X12736Y886D01*
G01X12682Y869D01*
G01X12645Y832D01*
G01X12627Y796D01*
G01X12627Y740D01*
G01X12627Y1007D02*
G01X12882Y1007D01*
G01X12700Y1007D02*
G01X12645Y1061D01*
G01X12627Y1098D01*
G01X12627Y1151D01*
G01X12645Y1188D01*
G01X12700Y1207D01*
G01X12882Y1207D01*
G01X12736Y1326D02*
G01X12736Y1544D01*
G01X12700Y1544D01*
G01X12663Y1526D01*
G01X12645Y1509D01*
G01X12627Y1471D01*
G01X12627Y1417D01*
G01X12645Y1380D01*
G01X12682Y1344D01*
G01X12736Y1326D01*
G01X12773Y1326D01*
G01X12827Y1344D01*
G01X12863Y1380D01*
G01X12882Y1417D01*
G01X12882Y1471D01*
G01X12863Y1509D01*
G01X12827Y1544D01*
G01X12500Y2163D02*
G01X12500Y1980D01*
G01X12663Y1963D01*
G01X12645Y1980D01*
G01X12627Y2036D01*
G01X12627Y2090D01*
G01X12645Y2144D01*
G01X12682Y2180D01*
G01X12736Y2200D01*
G01X12773Y2200D01*
G01X12827Y2180D01*
G01X12863Y2144D01*
G01X12882Y2090D01*
G01X12882Y2036D01*
G01X12863Y1980D01*
G01X12845Y1963D01*
G01X12809Y1944D01*
G01X13500Y549D02*
G01X13882Y294D01*
G01X13500Y294D02*
G01X13500Y549D01*
G01X13882Y294D02*
G01X13882Y549D01*
G01X13627Y759D02*
G01X13645Y723D01*
G01X13682Y687D01*
G01X13736Y669D01*
G01X13773Y669D01*
G01X13827Y687D01*
G01X13863Y723D01*
G01X13882Y759D01*
G01X13882Y814D01*
G01X13863Y850D01*
G01X13827Y887D01*
G01X13773Y905D01*
G01X13736Y905D01*
G01X13682Y887D01*
G01X13645Y850D01*
G01X13627Y814D01*
G01X13627Y759D01*
G01X13627Y1025D02*
G01X13882Y1025D01*
G01X13700Y1025D02*
G01X13645Y1079D01*
G01X13627Y1116D01*
G01X13627Y1170D01*
G01X13645Y1207D01*
G01X13700Y1225D01*
G01X13882Y1225D01*
G01X13736Y1345D02*
G01X13736Y1563D01*
G01X13700Y1563D01*
G01X13663Y1545D01*
G01X13645Y1527D01*
G01X13627Y1490D01*
G01X13627Y1436D01*
G01X13645Y1399D01*
G01X13682Y1363D01*
G01X13736Y1345D01*
G01X13773Y1345D01*
G01X13827Y1363D01*
G01X13863Y1399D01*
G01X13882Y1436D01*
G01X13882Y1490D01*
G01X13863Y1527D01*
G01X13827Y1563D01*
G01X13554Y2181D02*
G01X13518Y2163D01*
G01X13500Y2109D01*
G01X13500Y2072D01*
G01X13518Y2018D01*
G01X13573Y1981D01*
G01X13663Y1963D01*
G01X13754Y1963D01*
G01X13827Y1981D01*
G01X13863Y2018D01*
G01X13882Y2072D01*
G01X13882Y2090D01*
G01X13863Y2145D01*
G01X13827Y2181D01*
G01X13773Y2199D01*
G01X13754Y2199D01*
G01X13700Y2181D01*
G01X13663Y2145D01*
G01X13645Y2090D01*
G01X13645Y2072D01*
G01X13663Y2018D01*
G01X13700Y1981D01*
G01X13754Y1963D01*
G01X5055Y3099D02*
G01X5055Y2336D01*
G01X4800Y3099D02*
G01X5309Y3099D01*
G01X5548Y3099D02*
G01X5548Y2336D01*
G01X5548Y3099D02*
G01X6022Y3099D01*
G01X5548Y2736D02*
G01X5839Y2736D01*
G01X5548Y2336D02*
G01X6022Y2336D01*
G01X6261Y3099D02*
G01X6261Y2336D01*
G01X6261Y3099D02*
G01X6552Y2336D01*
G01X6843Y3099D02*
G01X6552Y2336D01*
G01X6843Y3099D02*
G01X6843Y2336D01*
G01X7084Y3099D02*
G01X7084Y2336D01*
G01X7084Y3099D02*
G01X7410Y3099D01*
G01X7519Y3063D01*
G01X7556Y3027D01*
G01X7593Y2954D01*
G01X7593Y2845D01*
G01X7556Y2772D01*
G01X7519Y2736D01*
G01X7410Y2699D01*
G01X7084Y2699D01*
G01X6172Y5709D02*
G01X6155Y5746D01*
G01X6118Y5782D01*
G01X6081Y5800D01*
G01X6009Y5800D01*
G01X5972Y5782D01*
G01X5935Y5746D01*
G01X5918Y5709D01*
G01X5900Y5655D01*
G01X5900Y5564D01*
G01X5918Y5509D01*
G01X5935Y5473D01*
G01X5972Y5437D01*
G01X6009Y5418D01*
G01X6081Y5418D01*
G01X6118Y5437D01*
G01X6155Y5473D01*
G01X6172Y5509D01*
G01X6172Y5564D01*
G01X6081Y5564D02*
G01X6172Y5564D01*
G01X7272Y5709D02*
G01X7255Y5746D01*
G01X7218Y5782D01*
G01X7181Y5800D01*
G01X7109Y5800D01*
G01X7072Y5782D01*
G01X7035Y5746D01*
G01X7018Y5709D01*
G01X7000Y5655D01*
G01X7000Y5564D01*
G01X7018Y5509D01*
G01X7035Y5473D01*
G01X7072Y5437D01*
G01X7109Y5418D01*
G01X7181Y5418D01*
G01X7218Y5437D01*
G01X7255Y5473D01*
G01X7272Y5509D01*
G01X7272Y5564D01*
G01X7181Y5564D02*
G01X7272Y5564D01*
G01X10172Y5709D02*
G01X10155Y5746D01*
G01X10118Y5782D01*
G01X10081Y5800D01*
G01X10009Y5800D01*
G01X9972Y5782D01*
G01X9935Y5746D01*
G01X9918Y5709D01*
G01X9900Y5655D01*
G01X9900Y5564D01*
G01X9918Y5509D01*
G01X9935Y5473D01*
G01X9972Y5437D01*
G01X10009Y5418D01*
G01X10081Y5418D01*
G01X10118Y5437D01*
G01X10155Y5473D01*
G01X10172Y5509D01*
G01X10172Y5564D01*
G01X10081Y5564D02*
G01X10172Y5564D01*
G01X11272Y5709D02*
G01X11255Y5746D01*
G01X11218Y5782D01*
G01X11181Y5800D01*
G01X11109Y5800D01*
G01X11072Y5782D01*
G01X11035Y5746D01*
G01X11018Y5709D01*
G01X11000Y5655D01*
G01X11000Y5564D01*
G01X11018Y5509D01*
G01X11035Y5473D01*
G01X11072Y5437D01*
G01X11109Y5418D01*
G01X11181Y5418D01*
G01X11218Y5437D01*
G01X11255Y5473D01*
G01X11272Y5509D01*
G01X11272Y5564D01*
G01X11181Y5564D02*
G01X11272Y5564D01*
G01X14172Y5709D02*
G01X14155Y5746D01*
G01X14118Y5782D01*
G01X14081Y5800D01*
G01X14009Y5800D01*
G01X13972Y5782D01*
G01X13935Y5746D01*
G01X13918Y5709D01*
G01X13900Y5655D01*
G01X13900Y5564D01*
G01X13918Y5509D01*
G01X13935Y5473D01*
G01X13972Y5437D01*
G01X14009Y5418D01*
G01X14081Y5418D01*
G01X14118Y5437D01*
G01X14155Y5473D01*
G01X14172Y5509D01*
G01X14172Y5564D01*
G01X14081Y5564D02*
G01X14172Y5564D01*
G01X15272Y5736D02*
G01X15255Y5773D01*
G01X15218Y5809D01*
G01X15181Y5827D01*
G01X15109Y5827D01*
G01X15072Y5809D01*
G01X15035Y5773D01*
G01X15018Y5736D01*
G01X15000Y5682D01*
G01X15000Y5591D01*
G01X15018Y5536D01*
G01X15035Y5500D01*
G01X15072Y5464D01*
G01X15109Y5445D01*
G01X15181Y5445D01*
G01X15218Y5464D01*
G01X15255Y5500D01*
G01X15272Y5536D01*
G01X15272Y5591D01*
G01X15181Y5591D02*
G01X15272Y5591D01*
G01X18172Y5709D02*
G01X18155Y5746D01*
G01X18118Y5782D01*
G01X18081Y5800D01*
G01X18009Y5800D01*
G01X17972Y5782D01*
G01X17935Y5746D01*
G01X17918Y5709D01*
G01X17900Y5655D01*
G01X17900Y5564D01*
G01X17918Y5509D01*
G01X17935Y5473D01*
G01X17972Y5437D01*
G01X18009Y5418D01*
G01X18081Y5418D01*
G01X18118Y5437D01*
G01X18155Y5473D01*
G01X18172Y5509D01*
G01X18172Y5564D01*
G01X18081Y5564D02*
G01X18172Y5564D01*
G01X19272Y5736D02*
G01X19255Y5773D01*
G01X19218Y5809D01*
G01X19181Y5827D01*
G01X19109Y5827D01*
G01X19072Y5809D01*
G01X19035Y5773D01*
G01X19018Y5736D01*
G01X19000Y5682D01*
G01X19000Y5591D01*
G01X19018Y5536D01*
G01X19035Y5500D01*
G01X19072Y5464D01*
G01X19109Y5445D01*
G01X19181Y5445D01*
G01X19218Y5464D01*
G01X19255Y5500D01*
G01X19272Y5536D01*
G01X19272Y5591D01*
G01X19181Y5591D02*
G01X19272Y5591D01*
G01X20200Y5800D02*
G01X20200Y5418D01*
G01X20200Y5418D02*
G01X20418Y5418D01*
G01X17100Y5800D02*
G01X17100Y5418D01*
G01X17100Y5418D02*
G01X17318Y5418D01*
G01X16100Y5827D02*
G01X16100Y5445D01*
G01X16100Y5445D02*
G01X16318Y5445D01*
G01X13100Y5800D02*
G01X13100Y5418D01*
G01X13100Y5418D02*
G01X13318Y5418D01*
G01X12100Y5827D02*
G01X12100Y5445D01*
G01X12100Y5445D02*
G01X12318Y5445D01*
G01X9000Y5800D02*
G01X9000Y5418D01*
G01X9000Y5418D02*
G01X9218Y5418D01*
G01X8100Y5800D02*
G01X8100Y5418D01*
G01X8100Y5418D02*
G01X8318Y5418D01*
G01X5100Y5800D02*
G01X5100Y5418D01*
G01X5100Y5418D02*
G01X5318Y5418D01*

G04 ---------------------------- text end*

G04 ---------------------------- protractor start*

G04 ---------------------------- protractor end*

G04 ---------------------------- PAD Start*

G04 ---------------------------- PAD End*

G04 ---------------------------- ARC Start*
G54D10*
G75*
G01X5200Y16100D02*
G2X5200Y17100I0J500D01*
G01*
G75*
G01X21158Y14157D02*
G2X21158Y15173I157J508D01*
G01*
G75*
G01X9158Y14157D02*
G2X9158Y15173I157J508D01*
G01*
G75*
G01X13258Y14157D02*
G2X13258Y15173I157J508D01*
G01*
G75*
G01X17258Y14157D02*
G2X17258Y15173I157J508D01*
G01*

G04 ---------------------------- ARC End*

G04 ---------------------------- CIRCLE Start*

G04 ---------------------------- CIRCLE End*

G04 ---------------------------- RECT Start*

G04 ---------------------------- RECT End*

G04 ---------------------------- SOLIDREGION Start*

G04 ---------------------------- SOLIDREGION End*

G04 ---------------------------- ALL layer Pad Via Start*

G04 ---------------------------- ALL layer Pad Via End*
M00*
M02*
