G04 ---------------------------- Layer name :BOTTOM SILK LAYER*
G04 Sat, 24 Nov 2018 04:00:05 GMT*
G04 67e7144068ef4060983f5ba8a8309223*
G04 Gerber Generator version 0.2*
G04 Scale: 100 percent, Rotated: No, Reflected: No *
G04 Dimensions in inches *
G04 leading zeros omitted , absolute positions ,2 integer and 4 decimal *
%FSLAX24Y24*%
%MOIN*%
G90*
G70D02*

%ADD10C,0.010000*%
%ADD33C,0.007000*%
%ADD34C,0.006000*%

G04 ---------------------------- copperAreaA Start*

G04 ---------------------------- copperAreaA End*

G04 ---------------------------- planeZoneA Start*

G04 ---------------------------- planeZoneA End*

G04 ---------------------------- Positive polarity*

%LPD*%

G04 ---------------------------- track start*
G54D10*
G01X13542Y12769D02*
G01X16635Y12769D01*
G01X17046Y12769D01*
G01X17046Y12769D02*
G01X17046Y15367D01*
G01X13542Y15367D02*
G01X17046Y15367D01*
G01X13542Y12765D02*
G01X13542Y13557D01*
G01X13542Y14573D02*
G01X13542Y15363D01*
G01X9542Y12669D02*
G01X12635Y12669D01*
G01X13046Y12669D01*
G01X13046Y12669D02*
G01X13046Y15267D01*
G01X9542Y15267D02*
G01X13046Y15267D01*
G01X9542Y12665D02*
G01X9542Y13457D01*
G01X9542Y14473D02*
G01X9542Y15263D01*
G01X5642Y12669D02*
G01X8735Y12669D01*
G01X9146Y12669D01*
G01X9146Y12669D02*
G01X9146Y15267D01*
G01X5642Y15267D02*
G01X9146Y15267D01*
G01X5642Y12665D02*
G01X5642Y13457D01*
G01X5642Y14473D02*
G01X5642Y15263D01*
G01X5900Y17900D02*
G01X5900Y18600D01*
G01X6900Y18600D01*
G01X6900Y17900D01*
G01X6900Y17300D02*
G01X6900Y16600D01*
G01X5900Y16600D01*
G01X5900Y17300D01*
G01X12800Y10400D02*
G01X12800Y11100D01*
G01X13800Y11100D01*
G01X13800Y10400D01*
G01X13800Y9800D02*
G01X13800Y9100D01*
G01X12800Y9100D01*
G01X12800Y9800D01*
G01X16800Y10600D02*
G01X16800Y11300D01*
G01X17800Y11300D01*
G01X17800Y10600D01*
G01X17800Y10000D02*
G01X17800Y9300D01*
G01X16800Y9300D01*
G01X16800Y10000D01*
G01X4700Y10500D02*
G01X4700Y11200D01*
G01X5700Y11200D01*
G01X5700Y10500D01*
G01X5700Y9900D02*
G01X5700Y9200D01*
G01X4700Y9200D01*
G01X4700Y9900D01*
G01X9600Y18000D02*
G01X9600Y18700D01*
G01X10600Y18700D01*
G01X10600Y18000D01*
G01X10600Y17400D02*
G01X10600Y16700D01*
G01X9600Y16700D01*
G01X9600Y17400D01*
G01X9000Y10400D02*
G01X9000Y11100D01*
G01X10000Y11100D01*
G01X10000Y10400D01*
G01X10000Y9800D02*
G01X10000Y9100D01*
G01X9000Y9100D01*
G01X9000Y9800D01*
G01X13200Y18000D02*
G01X13200Y18700D01*
G01X14200Y18700D01*
G01X14200Y18000D01*
G01X14200Y17400D02*
G01X14200Y16700D01*
G01X13200Y16700D01*
G01X13200Y17400D01*
G01X17400Y18100D02*
G01X17400Y18800D01*
G01X18400Y18800D01*
G01X18400Y18100D01*
G01X18400Y17500D02*
G01X18400Y16800D01*
G01X17400Y16800D01*
G01X17400Y17500D01*
G01X17542Y12769D02*
G01X20635Y12769D01*
G01X21046Y12769D01*
G01X21046Y12769D02*
G01X21046Y15367D01*
G01X17542Y15367D02*
G01X21046Y15367D01*
G01X17542Y12765D02*
G01X17542Y13557D01*
G01X17542Y14573D02*
G01X17542Y15363D01*
G01X1800Y19700D02*
G01X1800Y19000D01*
G01X800Y19000D01*
G01X800Y19700D01*
G01X800Y20300D02*
G01X800Y21000D01*
G01X1800Y21000D01*
G01X1800Y20300D01*
G01X12300Y20669D02*
G01X13489Y20669D01*
G01X12900Y21259D02*
G01X12900Y20080D01*
G01X16150Y19669D02*
G01X15900Y19919D01*
G01X15650Y19669D01*
G01X15150Y19669D01*
G01X14900Y19919D01*
G01X14650Y19669D01*
G01X14150Y19669D01*
G01X13900Y19919D01*
G01X13650Y19669D01*
G01X13150Y19669D01*
G01X12900Y19919D01*
G01X12650Y19669D01*
G01X12150Y19669D01*
G01X11900Y19919D01*
G01X11650Y19669D01*
G01X11150Y19669D01*
G01X10900Y19919D01*
G01X10650Y19669D01*
G01X10150Y19669D01*
G01X9900Y19919D01*
G01X9650Y19669D01*
G01X9150Y19669D01*
G01X8900Y19919D01*
G01X8650Y19669D01*
G01X8150Y19669D01*
G01X7900Y19919D01*
G01X7650Y19669D01*
G01X7150Y19669D01*
G01X6900Y19919D01*
G01X6650Y19669D01*
G01X6150Y19669D01*
G01X5900Y19919D01*
G01X5650Y19669D01*
G01X5150Y19669D01*
G01X4900Y19919D01*
G01X4650Y19669D01*
G01X4150Y19669D01*
G01X3900Y19919D01*
G01X3650Y19669D01*
G01X3150Y19669D01*
G01X2900Y19919D01*
G01X2900Y21419D01*
G01X3150Y21669D01*
G01X3650Y21669D01*
G01X3900Y21419D01*
G01X4150Y21669D01*
G01X4650Y21669D01*
G01X4900Y21419D01*
G01X5150Y21669D01*
G01X5650Y21669D01*
G01X5900Y21419D01*
G01X6150Y21669D01*
G01X6650Y21669D01*
G01X6900Y21419D01*
G01X7150Y21669D01*
G01X7650Y21669D01*
G01X7900Y21419D01*
G01X8150Y21669D01*
G01X8650Y21669D01*
G01X8900Y21419D01*
G01X9150Y21669D01*
G01X9650Y21669D01*
G01X9900Y21419D01*
G01X10150Y21669D01*
G01X10650Y21669D01*
G01X10900Y21419D01*
G01X11150Y21669D01*
G01X11650Y21669D01*
G01X11900Y21419D01*
G01X12150Y21669D01*
G01X12650Y21669D01*
G01X12900Y21419D01*
G01X13150Y21669D01*
G01X13650Y21669D01*
G01X13900Y21419D01*
G01X14150Y21669D01*
G01X14650Y21669D01*
G01X14900Y21419D01*
G01X15150Y21669D01*
G01X15650Y21669D01*
G01X15900Y21419D01*
G01X16150Y21669D01*
G01X16650Y21669D01*
G01X16900Y21419D01*
G01X17150Y21669D01*
G01X17650Y21669D01*
G01X17900Y21419D01*
G01X18150Y21669D01*
G01X18650Y21669D01*
G01X18900Y21419D01*
G01X19150Y21669D01*
G01X19650Y21669D01*
G01X19900Y21419D01*
G01X20150Y21669D01*
G01X20650Y21669D01*
G01X20900Y21419D01*
G01X21150Y21669D01*
G01X21650Y21669D01*
G01X21900Y21419D01*
G01X22150Y21669D01*
G01X22650Y21669D01*
G01X22900Y21419D01*
G01X22900Y19919D01*
G01X22650Y19669D01*
G01X22150Y19669D01*
G01X21900Y19919D01*
G01X21650Y19669D01*
G01X21150Y19669D01*
G01X20900Y19919D01*
G01X20650Y19669D01*
G01X20150Y19669D01*
G01X19900Y19919D01*
G01X19650Y19669D01*
G01X19150Y19669D01*
G01X18900Y19919D01*
G01X18650Y19669D01*
G01X18150Y19669D01*
G01X17900Y19919D01*
G01X17650Y19669D01*
G01X16430Y19669D01*
G01X16539Y19559D01*
G01X16650Y19669D01*
G01X16150Y19669D01*
G01X494Y22046D02*
G01X25297Y22046D01*
G01X25297Y0D02*
G01X494Y0D01*
G01X100Y394D02*
G01X100Y21653D01*
G01X494Y22046D02*
G01X100Y21653D01*
G01X25297Y22046D02*
G01X25690Y21653D01*
G01X25690Y394D02*
G01X25297Y0D01*
G01X494Y0D02*
G01X100Y394D01*
G01X25690Y21653D02*
G01X25690Y11023D01*
G01X25690Y394D01*

G04 ---------------------------- track end*

G04 ---------------------------- text start*
G54D33*
G01X15627Y11600D02*
G01X15627Y11294D01*
G01X15607Y11232D01*
G01X15566Y11190D01*
G01X15504Y11171D01*
G01X15463Y11171D01*
G01X15402Y11190D01*
G01X15361Y11232D01*
G01X15341Y11294D01*
G01X15341Y11600D01*
G01X15001Y11600D02*
G01X15206Y11313D01*
G01X14899Y11313D01*
G01X15001Y11600D02*
G01X15001Y11171D01*
G01X11587Y11600D02*
G01X11587Y11294D01*
G01X11567Y11232D01*
G01X11526Y11190D01*
G01X11464Y11171D01*
G01X11423Y11171D01*
G01X11362Y11190D01*
G01X11321Y11232D01*
G01X11301Y11294D01*
G01X11301Y11600D01*
G01X10900Y11457D02*
G01X10920Y11396D01*
G01X10961Y11355D01*
G01X11022Y11334D01*
G01X11043Y11334D01*
G01X11104Y11355D01*
G01X11145Y11396D01*
G01X11166Y11457D01*
G01X11166Y11478D01*
G01X11145Y11538D01*
G01X11104Y11580D01*
G01X11043Y11600D01*
G01X11022Y11600D01*
G01X10961Y11580D01*
G01X10920Y11538D01*
G01X10900Y11457D01*
G01X10900Y11355D01*
G01X10920Y11253D01*
G01X10961Y11190D01*
G01X11022Y11171D01*
G01X11063Y11171D01*
G01X11125Y11190D01*
G01X11145Y11232D01*
G01X7708Y11500D02*
G01X7708Y11194D01*
G01X7688Y11132D01*
G01X7647Y11090D01*
G01X7585Y11071D01*
G01X7544Y11071D01*
G01X7483Y11090D01*
G01X7442Y11132D01*
G01X7422Y11194D01*
G01X7422Y11500D01*
G01X7000Y11500D02*
G01X7205Y11071D01*
G01X7287Y11500D02*
G01X7000Y11500D01*
G01X7629Y17238D02*
G01X7200Y17238D01*
G01X7629Y17238D02*
G01X7629Y17423D01*
G01X7609Y17484D01*
G01X7589Y17505D01*
G01X7548Y17525D01*
G01X7507Y17525D01*
G01X7466Y17505D01*
G01X7445Y17484D01*
G01X7425Y17423D01*
G01X7425Y17238D01*
G01X7425Y17382D02*
G01X7200Y17525D01*
G01X7548Y17659D02*
G01X7568Y17701D01*
G01X7629Y17763D01*
G01X7200Y17763D01*
G01X7548Y17898D02*
G01X7568Y17938D01*
G01X7629Y18000D01*
G01X7200Y18000D01*
G01X14000Y10299D02*
G01X14429Y10299D01*
G01X14000Y10299D02*
G01X14000Y10115D01*
G01X14020Y10054D01*
G01X14040Y10033D01*
G01X14081Y10013D01*
G01X14122Y10013D01*
G01X14163Y10033D01*
G01X14184Y10054D01*
G01X14204Y10115D01*
G01X14204Y10299D01*
G01X14204Y10156D02*
G01X14429Y10013D01*
G01X14000Y9673D02*
G01X14286Y9878D01*
G01X14286Y9571D01*
G01X14000Y9673D02*
G01X14429Y9673D01*
G01X4528Y9754D02*
G01X4099Y9754D01*
G01X4528Y9754D02*
G01X4528Y9938D01*
G01X4508Y9999D01*
G01X4488Y10020D01*
G01X4447Y10040D01*
G01X4406Y10040D01*
G01X4365Y10020D01*
G01X4344Y9999D01*
G01X4324Y9938D01*
G01X4324Y9754D01*
G01X4324Y9897D02*
G01X4099Y10040D01*
G01X4447Y10175D02*
G01X4467Y10216D01*
G01X4528Y10278D01*
G01X4099Y10278D01*
G01X4528Y10535D02*
G01X4508Y10474D01*
G01X4447Y10433D01*
G01X4344Y10413D01*
G01X4283Y10413D01*
G01X4181Y10433D01*
G01X4119Y10474D01*
G01X4099Y10535D01*
G01X4099Y10576D01*
G01X4119Y10638D01*
G01X4181Y10679D01*
G01X4283Y10699D01*
G01X4344Y10699D01*
G01X4447Y10679D01*
G01X4508Y10638D01*
G01X4528Y10576D01*
G01X4528Y10535D01*
G01X11328Y17375D02*
G01X10899Y17375D01*
G01X11328Y17375D02*
G01X11328Y17559D01*
G01X11308Y17620D01*
G01X11288Y17641D01*
G01X11247Y17661D01*
G01X11206Y17661D01*
G01X11165Y17641D01*
G01X11144Y17620D01*
G01X11124Y17559D01*
G01X11124Y17375D01*
G01X11124Y17518D02*
G01X10899Y17661D01*
G01X11247Y17796D02*
G01X11267Y17837D01*
G01X11328Y17899D01*
G01X10899Y17899D01*
G01X11267Y18279D02*
G01X11308Y18259D01*
G01X11328Y18197D01*
G01X11328Y18156D01*
G01X11308Y18095D01*
G01X11247Y18054D01*
G01X11144Y18034D01*
G01X11042Y18034D01*
G01X10960Y18054D01*
G01X10919Y18095D01*
G01X10899Y18156D01*
G01X10899Y18177D01*
G01X10919Y18238D01*
G01X10960Y18279D01*
G01X11022Y18300D01*
G01X11042Y18300D01*
G01X11103Y18279D01*
G01X11144Y18238D01*
G01X11165Y18177D01*
G01X11165Y18156D01*
G01X11144Y18095D01*
G01X11103Y18054D01*
G01X11042Y18034D01*
G01X10529Y9634D02*
G01X10100Y9634D01*
G01X10529Y9634D02*
G01X10529Y9818D01*
G01X10509Y9879D01*
G01X10489Y9900D01*
G01X10448Y9920D01*
G01X10407Y9920D01*
G01X10366Y9900D01*
G01X10345Y9879D01*
G01X10325Y9818D01*
G01X10325Y9634D01*
G01X10325Y9777D02*
G01X10100Y9920D01*
G01X10448Y10055D02*
G01X10468Y10096D01*
G01X10529Y10158D01*
G01X10100Y10158D01*
G01X10529Y10497D02*
G01X10243Y10293D01*
G01X10243Y10599D01*
G01X10529Y10497D02*
G01X10100Y10497D01*
G01X14929Y17492D02*
G01X14500Y17492D01*
G01X14929Y17492D02*
G01X14929Y17676D01*
G01X14909Y17736D01*
G01X14889Y17757D01*
G01X14848Y17778D01*
G01X14807Y17778D01*
G01X14766Y17757D01*
G01X14745Y17736D01*
G01X14725Y17676D01*
G01X14725Y17492D01*
G01X14725Y17634D02*
G01X14500Y17778D01*
G01X14929Y18159D02*
G01X14929Y17953D01*
G01X14745Y17934D01*
G01X14766Y17953D01*
G01X14786Y18015D01*
G01X14786Y18077D01*
G01X14766Y18138D01*
G01X14725Y18178D01*
G01X14664Y18200D01*
G01X14623Y18200D01*
G01X14561Y18178D01*
G01X14520Y18138D01*
G01X14500Y18077D01*
G01X14500Y18015D01*
G01X14520Y17953D01*
G01X14541Y17934D01*
G01X14582Y17913D01*
G01X19129Y17755D02*
G01X18700Y17755D01*
G01X19129Y17755D02*
G01X19129Y17939D01*
G01X19109Y18000D01*
G01X19089Y18021D01*
G01X19048Y18041D01*
G01X19007Y18041D01*
G01X18966Y18021D01*
G01X18945Y18000D01*
G01X18925Y17939D01*
G01X18925Y17755D01*
G01X18925Y17898D02*
G01X18700Y18041D01*
G01X19048Y18176D02*
G01X19068Y18217D01*
G01X19129Y18279D01*
G01X18700Y18279D01*
G01X19129Y18455D02*
G01X19129Y18680D01*
G01X18966Y18557D01*
G01X18966Y18618D01*
G01X18945Y18659D01*
G01X18925Y18680D01*
G01X18864Y18700D01*
G01X18823Y18700D01*
G01X18761Y18680D01*
G01X18720Y18639D01*
G01X18700Y18577D01*
G01X18700Y18516D01*
G01X18720Y18455D01*
G01X18741Y18434D01*
G01X18782Y18414D01*
G01X19808Y11400D02*
G01X19808Y11094D01*
G01X19788Y11032D01*
G01X19747Y10990D01*
G01X19685Y10971D01*
G01X19644Y10971D01*
G01X19583Y10990D01*
G01X19542Y11032D01*
G01X19522Y11094D01*
G01X19522Y11400D01*
G01X19284Y11400D02*
G01X19346Y11380D01*
G01X19366Y11338D01*
G01X19366Y11298D01*
G01X19346Y11257D01*
G01X19305Y11236D01*
G01X19223Y11215D01*
G01X19162Y11196D01*
G01X19121Y11155D01*
G01X19100Y11113D01*
G01X19100Y11053D01*
G01X19121Y11011D01*
G01X19141Y10990D01*
G01X19203Y10971D01*
G01X19284Y10971D01*
G01X19346Y10990D01*
G01X19366Y11011D01*
G01X19387Y11053D01*
G01X19387Y11113D01*
G01X19366Y11155D01*
G01X19325Y11196D01*
G01X19264Y11215D01*
G01X19182Y11236D01*
G01X19141Y11257D01*
G01X19121Y11298D01*
G01X19121Y11338D01*
G01X19141Y11380D01*
G01X19203Y11400D01*
G01X19284Y11400D01*
G01X2528Y19654D02*
G01X2099Y19654D01*
G01X2528Y19654D02*
G01X2528Y19838D01*
G01X2508Y19899D01*
G01X2488Y19920D01*
G01X2447Y19940D01*
G01X2406Y19940D01*
G01X2365Y19920D01*
G01X2344Y19899D01*
G01X2324Y19838D01*
G01X2324Y19654D01*
G01X2324Y19797D02*
G01X2099Y19940D01*
G01X2447Y20075D02*
G01X2467Y20116D01*
G01X2528Y20178D01*
G01X2099Y20178D01*
G01X2528Y20599D02*
G01X2099Y20394D01*
G01X2528Y20313D02*
G01X2528Y20599D01*
G01X18200Y10700D02*
G01X18628Y10700D01*
G01X18200Y10700D02*
G01X18200Y10516D01*
G01X18219Y10455D01*
G01X18239Y10434D01*
G01X18281Y10414D01*
G01X18322Y10414D01*
G01X18363Y10434D01*
G01X18384Y10455D01*
G01X18403Y10516D01*
G01X18403Y10700D01*
G01X18403Y10557D02*
G01X18628Y10414D01*
G01X18281Y10279D02*
G01X18260Y10238D01*
G01X18200Y10176D01*
G01X18628Y10176D01*
G01X18200Y9939D02*
G01X18219Y10000D01*
G01X18260Y10021D01*
G01X18302Y10021D01*
G01X18343Y10000D01*
G01X18363Y9960D01*
G01X18384Y9878D01*
G01X18403Y9816D01*
G01X18444Y9775D01*
G01X18485Y9755D01*
G01X18547Y9755D01*
G01X18588Y9775D01*
G01X18609Y9796D01*
G01X18628Y9857D01*
G01X18628Y9939D01*
G01X18609Y10000D01*
G01X18588Y10021D01*
G01X18547Y10041D01*
G01X18485Y10041D01*
G01X18444Y10021D01*
G01X18403Y9980D01*
G01X18384Y9919D01*
G01X18363Y9837D01*
G01X18343Y9796D01*
G01X18302Y9775D01*
G01X18260Y9775D01*
G01X18219Y9796D01*
G01X18200Y9857D01*
G01X18200Y9939D01*
G54D34*
G01X3478Y19434D02*
G01X3451Y19448D01*
G01X3409Y19490D01*
G01X3409Y19203D01*
G01X22628Y19469D02*
G01X22478Y19469D01*
G01X22560Y19361D01*
G01X22519Y19361D01*
G01X22492Y19346D01*
G01X22478Y19332D01*
G01X22464Y19292D01*
G01X22464Y19265D01*
G01X22478Y19223D01*
G01X22506Y19196D01*
G01X22547Y19182D01*
G01X22588Y19182D01*
G01X22628Y19196D01*
G01X22642Y19211D01*
G01X22656Y19238D01*
G01X22197Y19373D02*
G01X22210Y19332D01*
G01X22239Y19305D01*
G01X22280Y19292D01*
G01X22293Y19292D01*
G01X22334Y19305D01*
G01X22360Y19332D01*
G01X22375Y19373D01*
G01X22375Y19388D01*
G01X22360Y19428D01*
G01X22334Y19455D01*
G01X22293Y19469D01*
G01X22280Y19469D01*
G01X22239Y19455D01*
G01X22210Y19428D01*
G01X22197Y19373D01*
G01X22197Y19305D01*
G01X22210Y19238D01*
G01X22239Y19196D01*
G01X22280Y19182D01*
G01X22306Y19182D01*
G01X22347Y19196D01*
G01X22360Y19223D01*
G01X8485Y19415D02*
G01X8459Y19428D01*
G01X8418Y19469D01*
G01X8418Y19182D01*
G01X8327Y19415D02*
G01X8301Y19428D01*
G01X8260Y19469D01*
G01X8260Y19182D01*
G01X13592Y19401D02*
G01X13592Y19415D01*
G01X13578Y19442D01*
G01X13564Y19455D01*
G01X13538Y19469D01*
G01X13482Y19469D01*
G01X13456Y19455D01*
G01X13442Y19442D01*
G01X13428Y19415D01*
G01X13428Y19388D01*
G01X13442Y19361D01*
G01X13469Y19319D01*
G01X13606Y19182D01*
G01X13414Y19182D01*
G01X13325Y19415D02*
G01X13297Y19428D01*
G01X13256Y19469D01*
G01X13256Y19182D01*
G01X18498Y19469D02*
G01X18348Y19469D01*
G01X18431Y19361D01*
G01X18389Y19361D01*
G01X18361Y19346D01*
G01X18348Y19332D01*
G01X18335Y19292D01*
G01X18335Y19265D01*
G01X18348Y19223D01*
G01X18376Y19196D01*
G01X18417Y19182D01*
G01X18457Y19182D01*
G01X18498Y19196D01*
G01X18511Y19211D01*
G01X18526Y19238D01*
G01X18244Y19415D02*
G01X18218Y19428D01*
G01X18177Y19469D01*
G01X18177Y19182D01*

G04 ---------------------------- text end*

G04 ---------------------------- protractor start*

G04 ---------------------------- protractor end*

G04 ---------------------------- PAD Start*

G04 ---------------------------- PAD End*

G04 ---------------------------- ARC Start*
G54D10*
G75*
G01X13542Y13557D02*
G3X13542Y14573I-157J508D01*
G01*
G75*
G01X9542Y13457D02*
G3X9542Y14473I-157J508D01*
G01*
G75*
G01X5642Y13457D02*
G3X5642Y14473I-157J508D01*
G01*
G75*
G01X17542Y13557D02*
G3X17542Y14573I-157J508D01*
G01*

G04 ---------------------------- ARC End*

G04 ---------------------------- CIRCLE Start*

G04 ---------------------------- CIRCLE End*

G04 ---------------------------- RECT Start*

G04 ---------------------------- RECT End*

G04 ---------------------------- SOLIDREGION Start*

G04 ---------------------------- SOLIDREGION End*

G04 ---------------------------- ALL layer Pad Via Start*

G04 ---------------------------- ALL layer Pad Via End*
M00*
M02*
