;PTH Drill file created by EasyEDA 
M48
INCH,LZ,00.0000
;Holesize 1 = 0.035 INCH
T01C0.035
;Holesize 2 = 0.039 INCH
T02C0.039
;Holesize 3 = 0.040 INCH
T03C0.040
;Holesize 4 = 0.043 INCH
T04C0.043
;Holesize 5 = 0.108 INCH
T05C0.108
%
G05
G90
T01
X+004700Y+018100
X+003700Y+018100
X+002700Y+018100
X+001700Y+018100
X+001700Y+015100
X+002700Y+015100
X+003700Y+015100
X+004700Y+015100
X+018200Y+007100
X+017200Y+007100
X+015200Y+007100
X+016200Y+007100
X+011200Y+007100
X+012200Y+007100
X+007200Y+007100
X+008200Y+007100
X+005200Y+007100
X+006200Y+007100
X+019200Y+007100
X+020200Y+007100
X+014200Y+007100
X+013200Y+007100
X+010200Y+007100
X+009200Y+007100
T02
X+015700Y+002900
X+014700Y+002900
X+013700Y+002900
X+012700Y+002900
X+011700Y+002900
X+010700Y+002900
X+009700Y+002900
X+008700Y+002900
T03
X+003400Y+020169
X+004400Y+020169
X+005400Y+020169
X+006400Y+020169
X+007400Y+020169
X+008400Y+020169
X+003400Y+021169
X+004400Y+021169
X+005400Y+021169
X+006400Y+021169
X+007400Y+021169
X+008400Y+021169
X+009400Y+020169
X+009400Y+021169
X+010400Y+020169
X+011400Y+020169
X+012400Y+020169
X+013400Y+020169
X+014400Y+020169
X+015400Y+020169
X+010400Y+021169
X+011400Y+021169
X+012400Y+021169
X+013400Y+021169
X+014400Y+021169
X+015400Y+021169
X+016400Y+020169
X+016400Y+021169
X+017400Y+020169
X+018400Y+020169
X+019400Y+020169
X+020400Y+020169
X+021400Y+020169
X+022400Y+020169
X+017400Y+021169
X+018400Y+021169
X+019400Y+021169
X+020400Y+021169
X+021400Y+021169
X+022400Y+021169
T04
X+003100Y+013300
X+003100Y+010300
X+001200Y+013300
X+001200Y+010300
X+001100Y+004000
X+001100Y+005000
X+001100Y+006000
X+001100Y+007000
T05
X+001480Y+001380
X+024310Y+001380
M30
