G04 ---------------------------- Layer name :TOP LAYER*
G04 Sat, 24 Nov 2018 04:00:05 GMT*
G04 67e7144068ef4060983f5ba8a8309223*
G04 Gerber Generator version 0.2*
G04 Scale: 100 percent, Rotated: No, Reflected: No *
G04 Dimensions in inches *
G04 leading zeros omitted , absolute positions ,2 integer and 4 decimal *
%FSLAX24Y24*%
%MOIN*%
G90*
G70D02*

%ADD10C,0.010000*%
%ADD11C,0.015000*%
%ADD12C,0.030000*%
%ADD13C,0.040000*%
%ADD14C,0.025000*%
%ADD15C,0.050000*%
%ADD16C,0.020000*%
%ADD17R,0.078740X0.070866*%
%ADD18R,0.070900X0.063000*%
%ADD19R,0.063000X0.070900*%
%ADD20R,0.063000X0.063000*%
%ADD21C,0.063000*%
%ADD22C,0.075000*%
%ADD23R,0.066929X0.066929*%
%ADD24C,0.066929*%
%ADD25C,0.060000*%
%ADD26C,0.244100*%
%ADD27R,0.055700X0.055700*%
%ADD28C,0.055700*%
%ADD29R,0.062000X0.062000*%

G04 ---------------------------- copperAreaA Start*

G04 ---------------------------- copperAreaA End*

G04 ---------------------------- planeZoneA Start*

G04 ---------------------------- planeZoneA End*

G04 ---------------------------- Positive polarity*

%LPD*%

G04 ---------------------------- track start*
G54D11*
G01X4401Y20169D02*
G01X4401Y19800D01*
G01X3800Y19200D01*
G01X2800Y19200D01*
G01X1700Y18100D01*
G01X5401Y20169D02*
G01X5401Y19400D01*
G01X4700Y18698D01*
G01X4700Y18100D01*
G54D12*
G01X1700Y15100D02*
G01X1700Y13800D01*
G01X1200Y13300D01*
G01X4700Y15100D02*
G01X4700Y14900D01*
G01X3100Y13300D01*
G01X3100Y13300D02*
G01X3100Y12200D01*
G01X2300Y11400D01*
G01X2300Y6200D01*
G01X1100Y5000D01*
G01X1200Y13300D02*
G01X1200Y12500D01*
G01X500Y11800D01*
G01X500Y7600D01*
G01X1100Y7000D01*
G01X1200Y10300D02*
G01X1200Y8100D01*
G01X1700Y7600D01*
G01X1800Y7500D01*
G01X1800Y6700D01*
G01X1100Y6000D01*
G01X3100Y10300D02*
G01X3100Y4900D01*
G01X2100Y3900D01*
G01X1200Y3900D01*
G01X1100Y4000D01*
G54D13*
G01X3400Y21169D02*
G01X3400Y21300D01*
G01X3900Y21800D01*
G01X23105Y21800D01*
G01X24200Y20698D01*
G01X24200Y9000D01*
G01X24200Y5300D01*
G01X22000Y3100D01*
G01X15900Y3100D01*
G01X15700Y2900D01*
G54D10*
G01X6401Y21169D02*
G01X6431Y21169D01*
G01X6900Y20700D01*
G01X6900Y18350D01*
G01X6850Y18300D01*
G54D14*
G01X7401Y20169D02*
G01X7401Y16552D01*
G01X7402Y16550D01*
G54D10*
G01X7950Y18300D02*
G01X8300Y18300D01*
G01X8600Y18000D01*
G01X8600Y16550D01*
G01X8600Y16550D01*
G54D15*
G01X8200Y7100D02*
G01X8200Y9550D01*
G01X8200Y10650D02*
G01X8200Y11700D01*
G01X8700Y12200D01*
G01X8700Y12746D01*
G01X8593Y12851D01*
G01X6200Y12850D02*
G01X6300Y11500D01*
G01X7200Y8600D01*
G01X7200Y7100D01*
G54D14*
G01X7402Y16550D02*
G01X7402Y15696D01*
G01X7700Y15400D01*
G01X11100Y15400D01*
G01X11400Y15700D01*
G01X11400Y16446D01*
G01X11502Y16550D01*
G54D10*
G01X9400Y20169D02*
G01X9400Y19050D01*
G01X9600Y18850D01*
G01X12700Y16550D02*
G01X12700Y17100D01*
G01X12300Y17500D01*
G01X9850Y17500D01*
G01X9600Y17750D01*
G54D14*
G01X11502Y16550D02*
G01X11502Y15696D01*
G01X11800Y15400D01*
G01X15300Y15400D01*
G01X15600Y15700D01*
G01X15600Y16084D01*
G54D10*
G01X8400Y21169D02*
G01X8431Y21169D01*
G01X8900Y20700D01*
G01X9800Y20700D01*
G01X9900Y20600D01*
G01X9900Y19800D01*
G01X10100Y19600D01*
G01X11800Y19600D01*
G01X12400Y19000D01*
G01X13000Y18400D01*
G01X13850Y18400D01*
G01X14950Y18400D02*
G01X16700Y16650D01*
G01X16700Y16550D01*
G54D15*
G01X11200Y7100D02*
G01X11200Y11900D01*
G01X10300Y12800D01*
G01X12693Y12850D02*
G01X12693Y11490D01*
G01X12100Y10896D01*
G01X12100Y10650D01*
G01X12100Y9550D02*
G01X12200Y9550D01*
G01X12200Y7100D01*
G01X14300Y12850D02*
G01X14300Y10700D01*
G01X15200Y9800D01*
G01X15200Y7100D01*
G01X16694Y12850D02*
G01X16700Y11300D01*
G01X16250Y10850D01*
G01X16200Y10850D01*
G01X16200Y9750D02*
G01X16200Y7100D01*
G01X18200Y12850D02*
G01X18200Y10700D01*
G01X19200Y9700D01*
G01X19200Y7100D01*
G01X20593Y12850D02*
G01X20593Y12689D01*
G01X20593Y11143D01*
G01X20200Y10750D01*
G01X20200Y9650D02*
G01X20200Y7100D01*
G01X20200Y7100D01*
G54D16*
G01X20400Y21169D02*
G01X20368Y21169D01*
G01X19900Y20700D01*
G01X19900Y18800D01*
G01X21800Y16900D01*
G01X21800Y6100D01*
G01X21100Y5400D01*
G01X11100Y5400D01*
G01X10800Y5100D01*
G01X10700Y5000D01*
G01X10700Y2900D01*
G01X11700Y2900D02*
G01X11700Y4400D01*
G01X12100Y4800D01*
G01X21300Y4800D01*
G01X22400Y5900D01*
G01X22400Y17800D01*
G01X21400Y18800D01*
G01X21400Y20169D01*
G01X21400Y20169D01*
G54D12*
G01X22400Y20169D02*
G01X22400Y19000D01*
G01X23200Y18200D01*
G01X23200Y5700D01*
G01X21600Y4100D01*
G01X15200Y4100D01*
G01X14700Y3700D01*
G01X14700Y2900D01*
G54D10*
G01X20599Y16550D02*
G01X20599Y16750D01*
G01X18950Y18400D01*
G01X19402Y16550D02*
G01X19402Y16796D01*
G01X18900Y17300D01*
G01X17300Y17300D01*
G01X16900Y17700D01*
G01X16900Y20669D01*
G01X17400Y21169D01*
G01X18400Y20169D02*
G01X18370Y20169D01*
G01X18000Y19800D01*
G01X18000Y18550D01*
G01X17850Y18400D01*

G04 ---------------------------- track end*

G04 ---------------------------- text start*

G04 ---------------------------- text end*

G04 ---------------------------- protractor start*

G04 ---------------------------- protractor end*

G04 ---------------------------- PAD Start*
G54D17*
G01X20599Y16550D03*
G01X19402Y16550D03*
G01X18206Y16550D03*
G01X18200Y12850D03*
G01X19398Y12851D03*
G01X20594Y12851D03*
G54D18*
G01X9600Y18850D03*
G01X9600Y17750D03*
G54D19*
G01X13850Y18399D03*
G01X14950Y18399D03*
G01X17850Y18400D03*
G01X18950Y18400D03*
G54D18*
G01X8200Y10650D03*
G01X8200Y9550D03*
G54D17*
G01X8599Y16550D03*
G01X7402Y16550D03*
G01X6206Y16550D03*
G01X6200Y12850D03*
G01X7398Y12851D03*
G01X8594Y12851D03*
G54D19*
G01X6850Y18299D03*
G01X7950Y18299D03*
G54D18*
G01X12100Y10650D03*
G01X12100Y9550D03*
G54D17*
G01X12699Y16550D03*
G01X11502Y16550D03*
G01X10306Y16550D03*
G01X10300Y12850D03*
G01X11498Y12851D03*
G01X12694Y12851D03*
G54D18*
G01X16200Y10850D03*
G01X16200Y9750D03*
G54D17*
G01X16699Y16550D03*
G01X15502Y16550D03*
G01X14306Y16550D03*
G01X14300Y12850D03*
G01X15498Y12851D03*
G01X16694Y12851D03*
G54D18*
G01X20200Y10750D03*
G01X20200Y9650D03*

G04 ---------------------------- PAD End*

G04 ---------------------------- ARC Start*

G04 ---------------------------- ARC End*

G04 ---------------------------- CIRCLE Start*

G04 ---------------------------- CIRCLE End*

G04 ---------------------------- RECT Start*

G04 ---------------------------- RECT End*

G04 ---------------------------- SOLIDREGION Start*

G04 ---------------------------- SOLIDREGION End*

G04 ---------------------------- ALL layer Pad Via Start*
G54D20*
G01X4700Y18100D03*
G54D21*
G01X3700Y18100D03*
G01X2700Y18100D03*
G01X1700Y18100D03*
G01X1700Y15100D03*
G01X2700Y15100D03*
G01X3700Y15100D03*
G01X4700Y15100D03*
G54D22*
G01X3100Y13300D03*
G01X3100Y10300D03*
G01X1200Y13300D03*
G01X1200Y10300D03*
G54D23*
G01X1100Y4000D03*
G54D24*
G01X1100Y5000D03*
G01X1100Y6000D03*
G01X1100Y7000D03*
G54D25*
G01X15700Y2900D03*
G01X14700Y2900D03*
G01X13700Y2900D03*
G01X12700Y2900D03*
G01X11700Y2900D03*
G01X10700Y2900D03*
G01X9700Y2900D03*
G01X8700Y2900D03*
G54D26*
G01X1480Y1380D03*
G01X24310Y1380D03*
G54D27*
G01X3400Y20169D03*
G01X4400Y20169D03*
G01X5400Y20169D03*
G01X6400Y20169D03*
G01X7400Y20169D03*
G01X8400Y20169D03*
G54D28*
G01X3400Y21169D03*
G54D27*
G01X4400Y21169D03*
G01X5400Y21169D03*
G01X6400Y21169D03*
G01X7400Y21169D03*
G01X8400Y21169D03*
G01X9400Y20169D03*
G01X9400Y21169D03*
G01X10400Y20169D03*
G01X11400Y20169D03*
G01X12400Y20169D03*
G01X13400Y20169D03*
G01X14400Y20169D03*
G01X15400Y20169D03*
G01X10400Y21169D03*
G01X11400Y21169D03*
G01X12400Y21169D03*
G01X13400Y21169D03*
G01X14400Y21169D03*
G01X15400Y21169D03*
G01X16400Y20169D03*
G01X16400Y21169D03*
G01X17400Y20169D03*
G01X18400Y20169D03*
G01X19400Y20169D03*
G01X20400Y20169D03*
G01X21400Y20169D03*
G01X22400Y20169D03*
G01X17400Y21169D03*
G01X18400Y21169D03*
G01X19400Y21169D03*
G01X20400Y21169D03*
G01X21400Y21169D03*
G01X22400Y21169D03*
G54D29*
G01X18200Y7100D03*
G01X17200Y7100D03*
G01X15200Y7100D03*
G01X16200Y7100D03*
G01X11200Y7100D03*
G01X12200Y7100D03*
G01X7200Y7100D03*
G01X8200Y7100D03*
G01X5200Y7100D03*
G01X6200Y7100D03*
G01X19200Y7100D03*
G01X20200Y7100D03*
G01X14200Y7100D03*
G01X13200Y7100D03*
G01X10200Y7100D03*
G01X9200Y7100D03*

G04 ---------------------------- ALL layer Pad Via End*
M00*
M02*
